<?xml version="1.0" standalone="no"?>
<!DOCTYPE svg PUBLIC "-//W3C//DTD SVG 20010904//EN"
 "http://www.w3.org/TR/2001/REC-SVG-20010904/DTD/svg10.dtd">
<svg version="1.0" xmlns="http://www.w3.org/2000/svg"
 width="300.000000pt" height="400.000000pt" viewBox="0 0 300.000000 400.000000"
 preserveAspectRatio="xMidYMid meet">
<metadata>
Created by potrace 1.10, written by Peter Selinger 2001-2011
</metadata>
<g transform="translate(0.000000,400.000000) scale(0.100000,-0.100000)"
fill="#000000" stroke="none">
<path d="M1415 3961 c-78 -32 -195 -229 -195 -328 0 -23 -5 -45 -10 -48 -6 -4
-22 -24 -35 -46 -20 -30 -25 -52 -25 -99 0 -74 -20 -99 -97 -124 -61 -20 -107
-67 -122 -123 -32 -121 -117 -732 -131 -943 -6 -96 -16 -194 -21 -217 -11 -53
-12 -100 0 -107 5 -3 12 -30 16 -61 5 -40 14 -62 34 -84 48 -52 112 -52 96 -1
-5 15 -13 20 -25 17 -22 -6 -30 11 -30 62 0 36 1 37 34 33 18 -2 43 1 55 7 28
15 28 21 -8 -296 -43 -376 -84 -590 -182 -950 -22 -82 -42 -167 -44 -189 -6
-68 -59 -249 -76 -260 -16 -9 -10 -24 11 -24 20 0 30 25 54 143 7 32 15 57 18
55 4 -2 10 1 15 6 5 5 3 6 -4 2 -9 -5 -13 1 -13 20 0 25 2 26 33 20 36 -7 116
-81 117 -108 0 -10 -4 -18 -8 -18 -4 0 -22 -19 -41 -42 -25 -33 -31 -50 -27
-71 4 -17 2 -26 -4 -22 -6 3 -10 -5 -10 -19 0 -14 -4 -26 -9 -26 -5 0 -13 -10
-16 -21 -7 -21 -8 -21 -31 9 -26 33 -84 58 -111 48 -12 -5 -1 -14 38 -34 38
-19 55 -34 57 -50 2 -12 -1 -23 -7 -23 -6 -1 -17 -2 -23 -4 -7 -1 -23 4 -35
12 -13 7 -23 10 -23 7 0 -4 -9 1 -20 11 -19 17 -19 20 -4 28 13 8 14 11 3 18
-9 5 -18 1 -26 -14 -30 -55 -2 -87 77 -87 53 0 55 1 107 58 41 44 58 72 73
121 11 36 31 76 47 93 21 22 27 38 27 68 -1 22 0 40 1 40 1 0 51 -11 111 -24
60 -14 138 -28 174 -32 36 -4 78 -13 95 -22 22 -11 51 -13 126 -9 l97 5 -5
-36 c-3 -21 -14 -67 -25 -103 -18 -61 -18 -70 -4 -103 9 -23 25 -40 43 -47 58
-22 154 12 161 57 2 12 0 15 -5 7 -5 -6 -21 -15 -36 -18 -21 -6 -27 -4 -27 9
0 9 -5 16 -10 16 -6 0 -10 -7 -8 -16 2 -12 -7 -17 -37 -20 -46 -4 -70 7 -62
29 7 18 120 33 163 23 19 -5 25 -3 22 6 -7 21 -154 23 -184 3 -30 -20 -32 -3
-1 19 12 9 16 14 10 11 -18 -9 -16 9 8 65 14 34 29 52 50 60 45 19 48 34 6 26
-56 -11 -53 11 4 28 29 9 54 14 57 11 2 -2 -1 -18 -7 -35 -8 -25 -7 -38 4 -60
8 -16 15 -37 15 -48 0 -10 7 -27 16 -38 15 -18 15 -18 10 6 -4 14 -9 45 -12
70 -2 25 -7 60 -9 79 l-4 33 49 -6 c51 -7 77 1 112 34 19 18 148 60 182 60 19
0 237 49 331 74 38 10 55 21 73 47 34 51 60 70 88 63 24 -6 88 20 133 55 l25
19 -60 59 c-75 75 -147 212 -239 458 -37 99 -95 243 -128 320 -33 77 -84 199
-113 270 l-53 130 52 7 c29 4 74 14 101 23 40 14 50 14 57 3 12 -19 11 -28 -3
-28 -8 -1 -6 -6 4 -14 10 -7 15 -15 12 -18 -2 -3 10 -8 28 -12 43 -8 82 19 86
61 3 34 -21 103 -36 103 -6 0 -1 -17 9 -37 10 -21 19 -47 19 -59 0 -58 -76
-73 -93 -19 -6 16 -27 46 -49 67 -55 53 -52 58 35 74 24 4 42 2 52 -6 18 -15
20 0 3 22 -18 22 -77 29 -113 12 -16 -8 -40 -30 -53 -49 -12 -19 -29 -35 -38
-35 -9 0 -29 -8 -46 -18 -22 -13 -28 -23 -25 -39 2 -13 1 -23 -3 -23 -11 0
-20 27 -20 62 0 37 -28 150 -41 162 -12 13 -11 4 0 -27 8 -21 7 -25 -7 -22 -9
2 -21 4 -25 4 -5 1 -6 10 -2 20 3 11 1 22 -5 26 -5 3 -10 15 -10 26 0 13 -7
19 -24 19 -13 0 -26 7 -30 15 -3 8 -11 15 -18 15 -8 0 -9 -3 -3 -8 6 -4 10
-14 10 -22 0 -8 10 -16 23 -18 16 -3 22 -8 18 -18 -3 -8 1 -17 9 -20 16 -6 11
-26 -17 -66 -22 -32 -23 -45 -3 -28 17 14 21 0 4 -17 -12 -12 -1 -65 12 -57 5
3 9 18 9 34 0 31 22 50 59 50 18 0 21 -6 21 -39 0 -49 -20 -69 -56 -53 -22 11
-26 9 -34 -14 -6 -14 -10 -37 -10 -52 l1 -27 18 23 c11 12 22 22 25 22 9 0
-14 -53 -31 -73 -9 -9 -13 -20 -10 -23 4 -4 14 7 24 25 21 36 33 39 40 11 4
-16 14 -20 47 -20 26 0 36 -3 28 -9 -8 -5 -17 -24 -21 -42 -7 -32 -10 -34 -46
-34 -36 0 -40 -3 -46 -30 -4 -16 -7 -38 -8 -49 -1 -16 2 -15 19 5 27 34 27 1
-1 -35 -11 -14 -16 -26 -10 -26 5 0 17 9 25 21 8 12 19 18 25 14 15 -9 14 -25
-3 -25 -20 0 -41 -30 -39 -54 2 -15 -1 -13 -12 9 -8 17 -14 35 -15 41 0 18
-29 25 -52 13 -27 -15 -47 -5 -59 31 -6 16 -18 30 -27 31 -10 1 0 6 21 11 53
14 83 4 98 -34 l13 -33 3 28 c3 19 -2 34 -14 44 -16 13 -16 14 0 9 9 -3 17 -1
17 4 0 6 -3 10 -7 10 -5 0 -17 13 -27 29 -21 31 -31 28 -55 -17 -13 -24 -40
-29 -58 -11 -18 18 -8 -44 13 -77 26 -41 46 -55 70 -49 14 3 31 -6 53 -29 36
-37 61 -37 61 0 0 30 30 46 83 42 34 -2 44 -8 57 -33 20 -40 19 -39 25 -33 8
8 -26 69 -41 75 -8 3 -21 17 -30 32 -13 22 -14 23 -9 3 5 -19 3 -22 -17 -18
-13 2 -22 9 -20 16 1 6 -2 9 -8 5 -10 -6 -35 44 -25 53 3 3 5 2 5 -2 0 -4 9
-2 19 4 14 7 21 6 24 -3 2 -6 8 5 12 26 4 21 12 36 19 34 6 -2 25 -37 42 -78
17 -41 48 -110 69 -154 62 -132 76 -168 71 -182 -3 -8 -2 -12 2 -9 5 3 14 -12
21 -32 14 -43 31 -86 60 -160 12 -29 19 -56 16 -61 -2 -5 2 -11 10 -15 8 -3
15 -11 15 -18 0 -9 -3 -8 -10 2 -5 8 -10 11 -10 5 0 -14 103 -219 115 -227 6
-4 6 -8 1 -8 -6 0 2 -12 16 -27 30 -32 53 -83 37 -83 -5 0 -14 10 -19 23 -6
16 -9 17 -9 5 -1 -19 35 -48 60 -48 9 0 21 -12 27 -26 7 -14 8 -23 3 -20 -11
7 -33 -19 -23 -28 4 -4 2 -7 -3 -5 -6 1 -18 -1 -28 -6 -9 -4 -31 -5 -47 -3
-17 3 -30 0 -30 -5 0 -6 -3 -8 -6 -4 -8 7 -93 -75 -91 -88 1 -5 -14 -10 -35
-10 -20 0 -34 -3 -31 -7 4 -8 -12 -12 -36 -9 -7 2 -10 -2 -7 -7 3 -5 -7 -10
-22 -10 -15 -1 -52 -6 -82 -12 -30 -6 -72 -14 -92 -17 -21 -3 -38 -10 -38 -15
0 -6 -17 -8 -40 -6 -22 2 -40 -1 -40 -6 0 -5 -3 -7 -6 -4 -7 8 -96 -21 -109
-36 -16 -18 -68 -49 -60 -35 6 8 4 10 -6 3 -8 -4 -30 -9 -49 -10 -19 -1 -62
-9 -95 -19 -38 -10 -83 -15 -122 -13 -35 2 -57 0 -50 -4 18 -11 -6 -10 -37 2
-18 7 -26 6 -26 -1 0 -13 -48 -3 -67 13 -7 6 -30 12 -50 13 -66 5 -116 15
-128 25 -7 6 -16 5 -23 -2 -9 -9 -12 -9 -12 0 0 6 -6 9 -14 6 -8 -3 -17 -1
-20 4 -3 6 -15 8 -26 5 -16 -4 -19 -2 -14 11 5 14 2 15 -19 7 -14 -5 -27 -8
-30 -5 -10 10 -56 14 -61 5 -7 -11 -77 3 -123 25 -41 19 -41 56 -2 139 5 11
11 35 14 53 4 33 23 98 33 117 3 5 7 16 8 25 1 8 16 83 33 165 17 83 31 153
31 158 0 4 4 7 10 7 6 0 6 -9 0 -26 -12 -31 -13 -84 -2 -84 5 0 8 15 8 33 0
17 3 47 8 66 6 24 5 32 -3 27 -7 -5 -11 2 -11 16 0 19 2 20 10 8 8 -12 10 -10
9 10 -1 14 2 33 6 43 5 11 3 17 -6 17 -8 0 -5 5 6 14 10 7 20 26 21 42 1 16 7
108 13 204 12 172 14 196 25 255 14 79 15 165 0 179 -16 16 -19 30 -5 22 5 -3
8 12 7 33 0 21 -4 37 -8 35 -4 -3 -10 1 -15 8 -4 7 -24 14 -43 16 -19 1 -51 4
-70 7 -19 2 -38 4 -42 4 -6 1 -5 164 2 181 1 3 5 -4 10 -15 5 -13 8 6 8 55 0
217 0 220 19 220 10 0 14 4 8 8 -13 9 -19 52 -7 52 6 0 10 12 9 28 -3 78 4
166 12 153 13 -21 23 4 17 42 -3 19 1 44 8 59 8 14 10 30 5 35 -4 4 -2 19 6
33 33 60 45 95 45 139 0 55 9 93 20 86 5 -3 8 8 8 24 -1 45 41 151 61 151 12
0 13 -2 3 -8 -9 -7 -10 -15 -3 -35 6 -15 6 -29 1 -32 -4 -3 -12 -19 -15 -36
-5 -23 -9 -28 -16 -18 -5 9 -7 -7 -4 -41 2 -30 1 -47 -4 -36 -6 15 -9 11 -19
-20 l-11 -38 21 21 c17 17 25 19 49 11 15 -5 30 -17 32 -26 2 -9 4 4 3 30 -1
46 -15 59 -28 26 -9 -22 -28 -24 -28 -3 0 8 5 15 10 15 6 0 10 5 10 11 0 5 -5
7 -12 3 -8 -5 -9 0 -5 17 4 13 7 31 8 39 0 10 3 9 9 -5 8 -17 9 -16 9 10 -1
49 9 96 26 121 18 28 30 32 21 7 -3 -10 5 -4 19 12 19 23 25 26 25 13 0 -10 4
-18 9 -18 15 0 23 18 11 25 -13 8 -13 55 0 55 6 0 15 -10 20 -22 7 -19 9 -14
9 25 1 26 8 58 16 71 14 21 14 24 0 30 -10 3 -14 2 -10 -5 4 -6 0 -18 -8 -27
-8 -9 -18 -27 -22 -40 -4 -13 -9 -21 -11 -19 -3 3 3 22 12 43 9 22 18 44 18
49 1 6 7 10 14 10 6 0 11 5 10 10 -2 6 -9 9 -15 9 -18 -2 -16 13 2 20 8 3 24
20 35 38 24 39 26 30 5 -15 l-16 -32 21 24 c16 19 20 37 20 101 0 76 1 80 39
127 43 55 115 120 146 133 19 8 19 9 -2 9 -14 1 -40 -16 -68 -43 -25 -25 -45
-42 -45 -38 0 4 -5 0 -10 -8 -5 -8 -10 -10 -10 -4 0 22 108 114 134 114 16 0
26 -6 26 -15 0 -8 9 -19 20 -25 14 -8 20 -8 20 0 0 7 6 10 13 7 6 -2 11 -13 9
-23 -2 -15 9 -25 42 -42 62 -29 78 -64 77 -164 0 -44 -4 -84 -7 -90 -4 -6 -7
-26 -6 -44 1 -18 -4 -39 -11 -47 -7 -7 -27 -29 -45 -49 -30 -31 -32 -38 -21
-60 6 -15 29 -34 50 -44 22 -9 39 -21 39 -25 0 -26 -94 -78 -143 -79 -21 0
-31 -8 -44 -35 -21 -44 -35 -44 -55 -1 -15 30 -22 35 -68 41 -57 8 -69 23 -53
65 6 16 7 33 3 40 -11 18 -18 -9 -25 -100 -8 -91 -40 -163 -98 -223 -59 -60
-81 -87 -72 -87 16 0 155 151 155 169 0 28 25 45 48 32 25 -13 32 -31 21 -53
-6 -11 -4 -18 6 -22 20 -7 19 -26 -1 -26 -14 0 -14 -1 0 -16 10 -9 17 -35 17
-62 3 -94 5 -107 13 -121 6 -10 6 -16 -2 -19 -7 -2 -7 -15 3 -42 9 -27 11 -49
5 -70 -5 -17 -5 -28 0 -25 4 3 13 -9 19 -26 6 -18 19 -38 28 -45 17 -12 16
-16 -9 -64 -31 -55 -34 -96 -16 -166 9 -31 20 -49 34 -55 12 -4 25 -13 29 -18
3 -6 15 -11 25 -11 14 0 20 -10 25 -40 4 -22 11 -40 16 -40 8 0 6 27 -6 66 -2
6 10 11 26 12 46 1 63 10 81 43 10 16 22 28 27 25 8 -6 26 21 23 36 -1 3 -4
20 -7 37 -3 16 -10 43 -15 58 -10 27 -9 27 6 8 9 -11 23 -35 31 -54 15 -35 43
-70 43 -53 0 5 -7 15 -15 22 -8 7 -15 23 -15 35 0 13 -4 25 -9 27 -5 2 -22 27
-38 57 -16 30 -36 57 -44 59 -9 2 -10 1 -3 -5 14 -11 26 -43 15 -43 -12 0 -51
45 -51 58 0 7 6 12 14 12 18 0 42 100 32 127 -4 10 -9 47 -12 81 -2 35 -7 68
-10 73 -3 5 -7 30 -9 56 -2 27 -6 73 -10 104 -6 59 7 89 41 89 23 0 105 48
139 81 30 28 52 39 40 19 -3 -5 0 -8 7 -5 22 8 61 -30 61 -60 0 -23 1 -25 9
-11 14 25 28 9 21 -25 -4 -22 -1 -33 13 -44 15 -11 16 -14 4 -15 -12 0 -13 -2
-1 -9 7 -5 17 -26 21 -47 5 -22 19 -88 32 -149 25 -119 37 -126 15 -7 -8 39
-11 72 -7 72 8 0 66 -229 63 -250 -1 -8 0 -22 4 -30 3 -8 7 -22 8 -30 2 -27
17 -65 29 -72 7 -5 7 -8 -3 -8 -9 0 -10 -4 -3 -12 16 -21 26 -62 13 -54 -6 4
-11 2 -11 -3 0 -6 4 -11 10 -11 12 0 44 -60 36 -67 -3 -3 3 -17 14 -30 10 -13
17 -33 15 -43 -2 -12 1 -17 10 -14 7 3 16 1 20 -5 3 -6 1 -11 -6 -11 -6 0 -1
-9 12 -21 l24 -20 -25 6 c-18 4 -14 -1 13 -15 32 -18 38 -26 35 -48 -2 -15 -9
-26 -15 -25 -24 5 -63 -40 -69 -78 -7 -40 -35 -57 -54 -34 -6 8 -18 11 -26 8
-10 -3 -12 0 -8 10 3 8 -1 26 -9 39 -8 13 -18 38 -22 55 -4 18 -10 35 -14 38
-5 2 -4 -17 1 -43 5 -26 15 -78 22 -117 9 -49 15 -65 21 -55 5 8 8 22 7 32 -2
9 2 19 8 23 18 11 24 -3 9 -22 -13 -15 -12 -16 6 -9 11 5 26 9 34 9 7 0 22 15
33 34 11 18 25 33 31 33 7 0 7 4 -1 12 -16 16 -15 28 3 28 8 0 15 4 15 9 0 5
7 12 15 15 18 7 55 -14 55 -30 0 -10 21 -24 35 -24 6 0 -11 55 -25 81 -7 13
-22 35 -35 49 -63 71 -115 200 -176 433 -54 207 -131 451 -160 509 -26 52 -61
75 -156 104 -46 15 -86 31 -90 36 -3 6 -6 48 -7 95 -2 60 2 87 12 95 58 49 56
197 -4 325 -29 61 -71 93 -121 93 -17 0 -35 5 -38 10 -7 12 -62 12 -90 1z
m186 -52 c38 -27 38 -47 -1 -41 -31 4 -39 16 -17 26 8 3 6 9 -7 20 -29 23 -9
19 25 -5z m44 -460 c0 -7 -8 -15 -17 -17 -18 -3 -25 18 -11 32 10 10 28 1 28
-15z m-25 -48 c14 -28 13 -33 -8 -20 -10 7 -19 18 -19 25 0 20 15 17 27 -5z
m134 -112 c5 -5 7 -12 3 -16 -4 -4 -13 -1 -19 5 -15 15 -28 16 -28 2 0 -5 7
-10 15 -10 8 0 15 -7 15 -15 0 -17 -26 -21 -32 -4 -2 7 -16 4 -41 -8 -35 -17
-53 -38 -23 -27 8 3 17 1 20 -5 4 -5 -4 -13 -16 -17 -13 -4 -24 -2 -26 5 -5
14 -29 14 -38 -1 -4 -6 -3 -8 4 -4 6 3 13 3 16 -2 2 -4 -4 -13 -15 -20 -16
-10 -21 -10 -25 3 -8 19 -28 19 -43 1 -10 -12 -8 -15 13 -18 20 -2 23 -6 16
-18 -7 -12 -13 -13 -28 -3 -17 10 -18 9 -15 -11 4 -17 10 -22 27 -19 16 3 22
-1 23 -16 2 -23 -16 -28 -35 -9 -9 9 -12 6 -12 -15 0 -29 9 -34 27 -16 8 8 14
6 22 -9 14 -25 -3 -40 -24 -22 -13 10 -15 8 -15 -14 0 -26 13 -35 25 -16 11
18 23 10 23 -16 0 -20 -4 -25 -19 -21 -16 4 -19 0 -19 -26 1 -29 2 -30 14 -14
20 26 33 21 34 -13 1 -30 -11 -40 -23 -20 -13 21 -21 9 -17 -25 4 -32 6 -34
17 -18 16 21 27 13 31 -22 3 -27 -13 -33 -35 -12 -11 10 -13 9 -7 -6 3 -10 6
-28 6 -40 0 -20 0 -20 14 -1 17 22 28 15 32 -21 3 -27 -14 -33 -34 -13 -9 9
-12 7 -12 -10 0 -12 6 -22 14 -22 24 0 28 -18 10 -39 -20 -23 -34 -19 -34 11
0 18 -2 19 -16 7 -10 -8 -12 -15 -5 -17 22 -7 11 -37 -14 -38 -22 -2 -25 2
-23 23 2 14 -3 28 -10 30 -7 3 -10 -1 -7 -10 3 -7 -1 -20 -10 -27 -12 -10 -15
-10 -15 4 0 9 -4 15 -9 14 -5 -2 -9 0 -10 5 -3 21 0 27 14 27 9 0 12 6 9 15
-5 12 -9 13 -20 4 -17 -14 -27 -6 -29 22 -2 26 12 34 32 17 15 -11 16 -11 10
5 -4 10 -7 28 -7 40 0 20 0 20 -14 1 -17 -22 -28 -15 -32 21 -3 26 14 33 33
14 9 -9 11 -3 10 25 -1 20 -5 36 -9 36 -5 0 -8 -4 -8 -10 0 -5 -8 -10 -17 -10
-12 0 -18 8 -19 25 -2 27 14 33 34 13 9 -9 12 -5 12 20 0 29 -2 32 -24 26 -18
-4 -25 -1 -29 15 -6 23 15 35 32 18 8 -8 11 -4 11 16 0 29 -9 34 -28 15 -7 -7
-12 -10 -13 -7 0 2 -2 15 -5 28 -4 19 -1 23 16 18 16 -4 20 0 20 21 0 20 -3
23 -12 14 -18 -18 -34 -14 -34 9 0 16 5 19 22 15 19 -5 21 -2 16 22 -3 15 -7
21 -9 15 -4 -12 -33 -19 -33 -9 0 2 -3 12 -7 22 -5 14 -2 16 15 12 26 -7 27
-5 6 16 -20 20 -34 20 -34 0 0 -11 -5 -14 -16 -10 -9 3 -20 6 -25 6 -17 0 -9
20 9 21 16 1 16 2 0 6 -12 3 -18 14 -17 31 1 15 3 20 6 11 4 -17 31 -29 68
-29 11 0 29 -14 41 -33 18 -27 26 -74 47 -255 14 -122 29 -226 32 -232 3 -5
16 -10 27 -10 20 0 21 3 14 88 -3 48 -14 150 -22 226 -21 178 -15 194 73 218
36 11 73 30 98 52 39 34 64 38 89 15z m-46 -61 c-3 -7 -11 -13 -18 -13 -7 0
-15 6 -17 13 -3 7 4 12 17 12 13 0 20 -5 18 -12z m-724 -30 c-5 -7 -10 -24
-12 -38 -2 -13 -9 -28 -15 -32 -17 -10 -22 -1 -7 17 7 8 10 22 6 31 -8 22 13
59 26 46 6 -6 7 -16 2 -24z m923 -50 c-3 -8 -6 -5 -6 6 -1 11 2 17 5 13 3 -3
4 -12 1 -19z m-450 -55 c-3 -10 -5 -2 -5 17 0 19 2 27 5 18 2 -10 2 -26 0 -35z
m13 -33 c0 -5 -4 -10 -10 -10 -5 0 -10 5 -10 10 0 6 5 10 10 10 6 0 10 -4 10
-10z m-533 -42 c-3 -7 -5 -2 -5 12 0 14 2 19 5 13 2 -7 2 -19 0 -25z m530 -10
c-3 -7 -5 -2 -5 12 0 14 2 19 5 13 2 -7 2 -19 0 -25z m-527 -28 c-6 -11 -13
-20 -15 -20 -3 0 -5 9 -5 20 0 11 7 20 15 20 13 0 14 -4 5 -20z m540 -33 c0
-5 -4 -5 -10 -2 -5 3 -10 14 -10 23 0 15 2 15 10 2 5 -8 10 -19 10 -23z m-550
-17 c0 -5 -5 -10 -11 -10 -5 0 -7 5 -4 10 3 6 8 10 11 10 2 0 4 -4 4 -10z
m547 -22 c-3 -8 -6 -5 -6 6 -1 11 2 17 5 13 3 -3 4 -12 1 -19z m10 -48 c-2
-24 -17 -15 -17 11 0 11 4 18 9 14 6 -3 9 -14 8 -25z m0 -62 c-3 -7 -5 -2 -5
12 0 14 2 19 5 13 2 -7 2 -19 0 -25z m13 -38 c0 -5 -5 -10 -11 -10 -5 0 -7 5
-4 10 3 6 8 10 11 10 2 0 4 -4 4 -10z m65 -181 c4 -5 17 -14 29 -19 27 -10 62
-92 50 -118 -4 -9 -6 -24 -5 -33 2 -22 -67 -82 -88 -76 -10 2 -25 0 -34 -5
-20 -11 -97 35 -97 57 0 9 -7 26 -15 38 -37 58 38 167 115 167 21 0 42 -5 45
-11z m395 -490 c0 -5 -9 -9 -20 -9 -22 0 -23 1 -14 24 5 13 9 14 20 5 8 -6 14
-15 14 -20z m-1130 -80 c0 -4 -8 -13 -17 -18 -16 -9 -16 -10 -1 -11 9 0 24 -3
33 -6 13 -5 15 -2 9 21 -6 24 -4 27 10 22 10 -4 22 -7 27 -7 5 0 9 -7 9 -15 0
-8 -6 -15 -12 -15 -20 0 14 -20 35 -20 10 0 17 7 17 18 0 14 -2 15 -10 2 -8
-12 -10 -11 -10 5 0 15 7 21 26 23 21 2 25 -2 20 -15 -4 -9 -1 -20 6 -25 24
-16 -22 -40 -62 -33 -111 20 -131 27 -126 42 3 8 6 23 6 33 0 13 5 17 20 13
11 -3 20 -9 20 -14z m1380 1 c0 -10 -54 -27 -115 -36 l-40 -5 23 20 c13 11 29
18 37 15 8 -3 22 -1 32 5 23 13 63 14 63 1z m-179 -47 c5 -74 5 -81 -7 -79
-38 6 -71 68 -41 79 19 8 47 8 48 0z m-1203 -39 c17 -12 22 -25 22 -62 0 -36
6 -54 25 -76 31 -36 31 -38 0 -24 -32 14 -52 46 -64 101 -6 24 -13 51 -17 60
-8 21 5 22 34 1z m1060 -162 c2 -7 -6 -12 -17 -12 -21 0 -27 11 -14 24 9 9 26
2 31 -12z m-944 -497 c-4 -8 -8 -15 -10 -15 -2 0 -4 7 -4 15 0 8 4 15 10 15 5
0 7 -7 4 -15z m-56 -865 c6 0 12 -7 12 -14 0 -12 -6 -13 -30 -4 -37 13 -54 34
-19 25 13 -4 30 -7 37 -7z"/>
<path d="M1471 2556 c-8 -10 -6 -19 10 -40 27 -34 45 -33 64 4 20 39 19 50 -5
50 -11 0 -20 -4 -20 -10 0 -5 4 -9 9 -7 10 2 11 -11 4 -30 -7 -18 -28 -16 -44
4 -11 13 -11 17 -1 20 14 5 17 23 3 23 -5 0 -14 -6 -20 -14z"/>
<path d="M1556 2508 c-17 -38 -9 -51 37 -62 31 -7 49 16 28 37 -8 8 -11 7 -11
-6 0 -18 -9 -21 -34 -11 -19 7 -21 25 -4 42 9 9 15 9 26 0 12 -10 14 -9 11 7
-7 34 -38 30 -53 -7z"/>
<path d="M1427 2523 c-4 -3 -7 -13 -7 -21 0 -11 3 -12 13 -3 11 8 18 6 32 -9
18 -20 18 -21 -1 -35 -25 -19 -34 -19 -34 0 0 8 -4 15 -10 15 -16 0 -11 -30 6
-37 23 -8 64 14 64 35 0 10 -10 28 -23 40 -25 24 -30 26 -40 15z"/>
<path d="M1536 2432 c-3 -5 -3 -26 1 -46 4 -26 10 -36 21 -34 8 2 17 9 20 16
2 7 -2 10 -12 6 -12 -5 -16 0 -16 20 0 21 5 26 26 26 21 0 24 -4 19 -20 -5
-15 -3 -18 9 -14 24 9 19 33 -10 44 -31 12 -51 13 -58 2z"/>
<path d="M1451 2412 l-23 -18 37 -28 c43 -33 58 -26 53 25 -4 41 -32 50 -67
21z m57 -25 c4 -31 -4 -33 -37 -10 -23 15 -23 17 -5 30 25 18 38 12 42 -20z"/>
<path d="M1440 3887 c-21 -13 -41 -40 -57 -75 -13 -29 -39 -68 -57 -85 -37
-34 -45 -58 -31 -97 7 -24 8 -24 16 -5 12 31 10 -3 -4 -71 -10 -48 -10 -61 0
-61 6 0 10 4 7 8 -2 4 1 11 7 14 20 13 5 -48 -18 -74 -13 -13 -23 -30 -23 -37
0 -8 -4 -14 -10 -14 -5 0 -10 -16 -10 -35 0 -22 -6 -38 -14 -41 -8 -3 -12 -12
-9 -21 3 -8 -4 -28 -17 -45 -21 -29 -21 -29 -1 -18 27 14 27 -1 1 -25 -15 -14
-20 -15 -20 -4 0 11 -2 11 -10 -1 -5 -8 -10 -19 -10 -25 0 -5 5 -3 10 5 8 12
10 12 10 1 0 -11 5 -10 20 4 17 15 20 16 20 3 0 -9 -7 -21 -16 -29 -8 -7 -22
-26 -30 -42 -15 -27 -16 -28 -29 -10 -8 10 -15 27 -15 37 0 10 -7 24 -16 31
-14 9 -14 16 -5 34 7 12 10 27 8 34 -2 7 -10 -6 -17 -29 -10 -32 -10 -46 0
-63 9 -19 9 -26 -4 -40 -22 -24 -20 -38 2 -18 26 24 46 7 39 -32 -4 -17 -5
-31 -3 -31 11 0 90 137 93 159 7 72 26 177 34 185 5 6 9 17 9 25 0 9 12 24 25
34 21 15 25 16 25 3 0 -8 -9 -20 -20 -26 -12 -7 -18 -16 -13 -23 13 -20 14
-50 4 -79 -6 -17 -6 -26 -1 -23 5 3 12 22 16 43 4 20 13 45 21 54 11 12 13 29
8 60 l-6 43 19 -24 c11 -14 18 -30 16 -35 -8 -20 44 -65 68 -61 30 6 86 33 94
46 10 16 -2 22 -24 10 -14 -7 -27 -5 -53 9 -19 10 -48 25 -65 33 -38 18 -66
74 -63 126 2 23 -4 49 -14 64 -15 24 -15 25 3 20 12 -3 20 0 20 6 0 7 -4 9
-10 6 -13 -8 -13 8 -1 21 6 5 25 38 44 74 35 65 43 71 110 85 33 7 35 18 4 32
-19 9 -30 7 -57 -10z m45 3 c3 -5 -1 -10 -10 -10 -9 0 -13 5 -10 10 3 6 8 10
10 10 2 0 7 -4 10 -10z m-53 -461 c17 -9 18 -13 7 -21 -10 -7 -8 -7 9 -3 16 5
22 2 22 -9 0 -19 -1 -19 -35 -6 -15 6 -23 15 -19 21 3 6 0 15 -7 20 -20 13 -1
11 23 -2z m-85 -34 c-4 -8 -11 -15 -17 -15 -7 0 -7 6 0 21 13 23 26 19 17 -6z"/>
<path d="M1326 3772 c-22 -27 -24 -32 -7 -17 20 17 47 55 39 55 -2 0 -16 -17
-32 -38z"/>
<path d="M1393 3750 c-34 -14 -28 -19 15 -13 73 10 119 -72 70 -124 -12 -13
-20 -24 -17 -25 36 -22 53 -27 74 -22 14 3 22 10 19 15 -3 6 -14 7 -24 4 -10
-3 -21 -1 -25 5 -3 6 -11 8 -16 5 -5 -4 -9 -1 -9 4 0 6 6 11 14 11 16 0 26 42
19 85 -4 25 -13 35 -44 48 -44 19 -45 19 -76 7z"/>
<path d="M1566 3714 c-18 -18 -20 -30 -6 -39 6 -3 10 -1 10 6 0 8 6 6 18 -4
21 -20 48 -22 58 -6 9 15 -15 29 -50 29 -41 0 -26 10 18 12 20 1 36 5 36 10 0
14 -68 9 -84 -8z m54 -34 c0 -5 -5 -10 -11 -10 -5 0 -7 5 -4 10 3 6 8 10 11
10 2 0 4 -4 4 -10z"/>
<path d="M1397 3713 c-14 -4 -16 -8 -6 -19 13 -16 45 -19 54 -4 10 16 28 12
21 -5 -5 -15 5 -20 17 -8 4 3 0 15 -10 25 -16 17 -38 21 -76 11z"/>
<path d="M1280 3587 c0 -14 5 -29 10 -32 7 -4 8 3 4 22 -9 38 -14 42 -14 10z"/>
<path d="M1398 3563 c7 -3 16 -2 19 1 4 3 -2 6 -13 5 -11 0 -14 -3 -6 -6z"/>
<path d="M1458 3520 c39 -36 51 -37 102 -7 38 21 58 47 23 28 -11 -5 -39 -5
-68 0 -89 14 -94 12 -57 -21z m65 0 c8 0 7 -4 -1 -12 -9 -9 -16 -8 -30 6 -16
18 -16 19 1 12 10 -3 24 -6 30 -6z"/>
<path d="M1253 3494 c-15 -24 -18 -35 -23 -89 -2 -17 -3 -16 -10 5 -4 14 -8
18 -9 9 -1 -9 4 -31 10 -49 11 -29 13 -30 22 -14 7 12 7 19 0 21 -14 5 -4 50
15 65 12 10 14 10 8 1 -4 -7 -3 -13 2 -13 5 0 8 17 7 38 -2 20 2 40 9 44 8 6
8 8 -1 8 -7 0 -20 -12 -30 -26z"/>
<path d="M1190 3320 c0 -9 -7 -17 -15 -18 -8 -1 -22 -3 -30 -4 -8 -1 -17 -8
-20 -16 -4 -10 0 -12 12 -7 10 4 32 9 48 11 l30 5 -25 -20 c-14 -11 -28 -21
-31 -21 -4 0 -5 -10 -4 -22 1 -13 4 -41 5 -63 l3 -40 7 45 c4 25 5 49 3 53 -3
5 10 21 28 37 29 23 32 30 20 43 -7 9 -10 20 -7 25 3 5 -1 9 -9 9 -8 0 -15 -8
-15 -17z"/>
<path d="M1340 3310 c0 -5 7 -10 15 -10 8 0 15 5 15 10 0 6 -7 10 -15 10 -8 0
-15 -4 -15 -10z"/>
<path d="M1578 3303 c7 -3 16 -2 19 1 4 3 -2 6 -13 5 -11 0 -14 -3 -6 -6z"/>
<path d="M1087 3273 c-4 -3 -7 -11 -7 -17 0 -6 5 -5 12 2 6 6 9 14 7 17 -3 3
-9 2 -12 -2z"/>
<path d="M1022 3226 c-17 -37 -15 -45 4 -18 8 12 14 27 12 33 -2 6 -9 -1 -16
-15z"/>
<path d="M1091 3231 c-12 -12 -21 -27 -21 -33 0 -7 12 0 27 14 15 15 24 30 21
34 -4 3 -16 -4 -27 -15z"/>
<path d="M1081 3158 c-1 -9 -7 -18 -13 -21 -7 -2 -9 -8 -5 -13 4 -5 12 -2 17
6 8 13 10 13 10 1 0 -8 2 -12 5 -9 3 3 1 16 -4 29 -7 16 -10 18 -10 7z"/>
<path d="M976 3085 c-9 -26 -7 -32 5 -12 6 10 9 21 6 23 -2 3 -7 -2 -11 -11z"/>
<path d="M1133 3075 c-3 -9 -3 -18 -1 -21 3 -3 8 4 11 16 6 23 -1 27 -10 5z"/>
<path d="M1101 3021 c-7 -23 -10 -45 -7 -48 9 -9 27 49 23 71 -2 15 -7 8 -16
-23z"/>
<path d="M1014 3026 c-3 -8 -11 -14 -17 -12 -7 1 -9 1 -5 -1 7 -4 -32 -84 -53
-110 -7 -7 -10 -16 -7 -18 7 -7 24 15 51 65 12 23 26 42 31 40 10 -2 26 20 26
38 0 17 -19 15 -26 -2z"/>
<path d="M1861 3003 c-1 -17 3 -33 9 -35 5 -1 15 -48 21 -103 12 -110 37 -234
38 -195 2 44 -37 284 -53 325 l-15 40 0 -32z"/>
<path d="M1045 2998 c-6 -16 -2 -39 10 -57 5 -10 4 -16 -3 -19 -18 -6 -14 -48
5 -63 15 -12 16 -12 10 4 -4 10 0 36 7 57 8 23 10 43 5 46 -5 3 -6 10 -3 16 4
6 2 8 -4 5 -5 -4 -8 -17 -6 -30 4 -21 4 -21 -6 2 -7 17 -7 27 1 37 9 11 9 14
0 14 -6 0 -14 -6 -16 -12z"/>
<path d="M1165 2977 c-4 -12 -1 -35 4 -50 6 -15 8 -33 5 -40 -2 -7 0 -24 5
-38 8 -20 10 -14 10 33 1 31 -3 60 -9 63 -16 10 -12 35 6 35 8 0 12 5 9 10
-10 17 -24 11 -30 -13z"/>
<path d="M1006 2964 c-9 -25 -7 -64 4 -64 6 0 10 18 10 40 0 43 -4 50 -14 24z"/>
<path d="M1921 2964 c0 -11 3 -14 6 -6 3 7 2 16 -1 19 -3 4 -6 -2 -5 -13z"/>
<path d="M1124 2938 c-31 -33 -46 -67 -39 -85 3 -9 0 -20 -7 -24 -10 -7 -11
-12 0 -29 16 -27 15 -41 -3 -34 -8 4 -24 34 -34 68 -11 33 -21 59 -21 56 -1
-3 -4 -29 -6 -57 -4 -45 -2 -53 12 -53 10 0 25 -7 35 -16 26 -23 42 -8 34 32
-6 35 10 49 18 17 3 -11 5 -7 6 10 1 17 -3 26 -9 22 -5 -3 -10 1 -10 9 0 9 7
16 15 16 9 0 15 9 15 23 0 13 5 28 11 34 6 6 10 16 7 23 -2 7 -12 2 -24 -12z"/>
<path d="M1920 2921 c0 -25 6 -27 13 -6 4 8 2 17 -3 20 -6 4 -10 -3 -10 -14z"/>
<path d="M1841 2904 c0 -11 3 -14 6 -6 3 7 2 16 -1 19 -3 4 -6 -2 -5 -13z"/>
<path d="M962 2885 c-7 -8 -13 -18 -13 -22 0 -5 -8 -17 -18 -28 -17 -19 -40
-67 -25 -52 4 4 13 2 20 -4 8 -6 20 -9 29 -6 8 4 18 -1 23 -10 8 -14 10 -14
15 1 4 9 2 16 -4 16 -6 0 -8 9 -3 23 l6 22 -25 -24 c-14 -12 -30 -20 -36 -16
-15 9 -14 25 2 25 24 0 38 18 43 53 5 41 4 42 -14 22z m8 -40 c0 -2 -10 -9
-22 -15 -22 -11 -22 -10 -4 4 21 17 26 19 26 11z"/>
<path d="M1140 2856 c0 -14 5 -28 10 -31 6 -3 10 5 10 19 0 14 -4 28 -10 31
-6 3 -10 -5 -10 -19z"/>
<path d="M1837 2818 c-3 -23 -2 -49 3 -57 5 -10 9 5 11 42 5 66 -6 77 -14 15z"/>
<path d="M1938 2848 c-2 -7 -1 -29 3 -48 6 -32 7 -31 6 13 0 49 -2 56 -9 35z"/>
<path d="M1991 2764 c0 -11 3 -14 6 -6 3 7 2 16 -1 19 -3 4 -6 -2 -5 -13z"/>
<path d="M1770 2749 c0 -8 7 -23 15 -33 8 -11 15 -27 15 -37 0 -9 7 -19 15
-23 11 -4 8 9 -11 47 -31 61 -34 65 -34 46z"/>
<path d="M1997 2719 c4 -13 8 -18 11 -10 2 7 -1 18 -6 23 -8 8 -9 4 -5 -13z"/>
<path d="M1071 2692 c2 -23 7 -42 11 -42 9 0 3 68 -7 78 -3 4 -5 -13 -4 -36z"/>
<path d="M975 2710 c3 -5 8 -10 11 -10 2 0 4 5 4 10 0 6 -5 10 -11 10 -5 0 -7
-4 -4 -10z"/>
<path d="M1831 2704 c0 -11 3 -14 6 -6 3 7 2 16 -1 19 -3 4 -6 -2 -5 -13z"/>
<path d="M1711 2703 c-1 -17 49 -142 59 -148 9 -5 -10 51 -39 115 -11 25 -20
39 -20 33z"/>
<path d="M1860 2698 c0 -9 5 -20 11 -23 6 -4 8 -13 5 -21 -3 -8 1 -14 9 -14
20 0 19 9 -5 45 -14 20 -20 25 -20 13z"/>
<path d="M892 2670 c0 -19 2 -27 5 -17 2 9 2 25 0 35 -3 9 -5 1 -5 -18z"/>
<path d="M1024 2615 c0 -49 1 -71 3 -48 2 23 2 64 0 90 -2 26 -3 8 -3 -42z"/>
<path d="M986 2645 c8 -37 14 -45 14 -19 0 10 -5 26 -10 34 -8 11 -9 7 -4 -15z"/>
<path d="M1960 2639 c0 -5 5 -7 10 -4 6 3 10 8 10 11 0 2 -4 4 -10 4 -5 0 -10
-5 -10 -11z"/>
<path d="M1927 2620 c3 -11 7 -20 9 -20 2 0 4 9 4 20 0 11 -4 20 -9 20 -5 0
-7 -9 -4 -20z"/>
<path d="M1069 2600 c-7 -35 -4 -48 7 -38 3 4 4 21 2 40 l-3 33 -6 -35z"/>
<path d="M1890 2620 c0 -5 5 -10 11 -10 5 0 7 5 4 10 -3 6 -8 10 -11 10 -2 0
-4 -4 -4 -10z"/>
<path d="M1870 2617 c0 -4 7 -24 16 -45 13 -33 16 -35 26 -19 5 10 7 21 4 24
-3 4 -6 0 -6 -8 -1 -8 -9 2 -20 21 -11 19 -19 31 -20 27z"/>
<path d="M2011 2588 c5 -18 10 -49 10 -68 1 -26 3 -29 6 -11 6 32 -6 111 -17
111 -5 0 -4 -15 1 -32z"/>
<path d="M994 2465 c0 -77 2 -107 3 -67 2 40 2 103 0 140 -2 37 -3 4 -3 -73z"/>
<path d="M1057 2523 c-3 -16 -2 -32 3 -36 4 -5 10 7 12 27 5 42 -7 49 -15 9z"/>
<path d="M1915 2531 c-4 -12 2 -35 15 -58 12 -21 18 -29 14 -18 -3 11 -8 35
-9 53 -4 42 -11 50 -20 23z"/>
<path d="M1024 2435 c0 -49 1 -71 3 -48 2 23 2 64 0 90 -2 26 -3 8 -3 -42z"/>
<path d="M1311 2483 c0 -12 -4 -30 -7 -40 -5 -17 -5 -17 6 0 6 10 9 28 7 40
-4 22 -4 22 -6 0z"/>
<path d="M1248 2455 c2 -14 6 -25 8 -25 2 0 4 11 4 25 0 14 -4 25 -9 25 -4 0
-6 -11 -3 -25z"/>
<path d="M1050 2451 c0 -10 -3 -34 -6 -52 -4 -23 -2 -29 4 -19 14 22 22 90 11
90 -5 0 -9 -8 -9 -19z"/>
<path d="M2010 2456 c0 -8 5 -18 10 -21 6 -3 10 3 10 14 0 12 -4 21 -10 21 -5
0 -10 -6 -10 -14z"/>
<path d="M1352 2435 c0 -16 2 -22 5 -12 2 9 2 23 0 30 -3 6 -5 -1 -5 -18z"/>
<path d="M1971 2457 c-1 -5 11 -25 26 -45 15 -20 28 -39 30 -41 2 -2 5 -2 8 1
3 3 -4 15 -14 27 -11 12 -26 32 -35 44 -8 12 -15 18 -15 14z"/>
<path d="M1666 2374 c-8 -22 -8 -24 7 -24 8 0 19 -10 25 -22 6 -13 11 -17 11
-10 1 13 -26 72 -33 72 -2 0 -7 -7 -10 -16z"/>
<path d="M1715 2380 c3 -5 8 -10 11 -10 2 0 4 5 4 10 0 6 -5 10 -11 10 -5 0
-7 -4 -4 -10z"/>
<path d="M2060 2386 c0 -2 8 -10 18 -17 15 -13 16 -12 3 4 -13 16 -21 21 -21
13z"/>
<path d="M1844 2369 c-4 -7 -3 -9 4 -5 5 3 13 0 15 -6 4 -9 6 -10 6 -1 1 17
-16 25 -25 12z"/>
<path d="M1041 2334 c0 -11 3 -14 6 -6 3 7 2 16 -1 19 -3 4 -6 -2 -5 -13z"/>
<path d="M1671 2310 c0 -29 1 -32 10 -17 7 11 7 23 0 35 -9 14 -10 11 -10 -18z"/>
<path d="M1876 2327 c3 -10 9 -15 12 -12 3 3 0 11 -7 18 -10 9 -11 8 -5 -6z"/>
<path d="M1981 2313 c11 -34 19 -42 19 -20 0 7 -7 22 -15 33 -13 17 -14 16 -4
-13z"/>
<path d="M1253 2318 c-5 -7 -10 -38 -10 -68 -1 -48 0 -51 8 -25 5 17 7 39 5
49 -3 11 0 26 6 33 6 8 9 16 6 18 -3 3 -10 0 -15 -7z"/>
<path d="M1405 2310 c-3 -5 -1 -10 4 -10 6 0 11 5 11 10 0 6 -2 10 -4 10 -3 0
-8 -4 -11 -10z"/>
<path d="M1621 2304 c0 -11 3 -14 6 -6 3 7 2 16 -1 19 -3 4 -6 -2 -5 -13z"/>
<path d="M1714 2287 c3 -10 6 -23 6 -28 0 -5 5 -9 10 -9 14 0 12 13 -6 36 -14
17 -15 17 -10 1z"/>
<path d="M1568 2268 c7 -7 12 -23 13 -37 0 -15 3 -20 6 -13 7 19 -6 62 -19 62
-9 0 -9 -3 0 -12z"/>
<path d="M1470 2246 c0 -9 5 -16 10 -16 6 0 10 4 10 9 0 6 -4 13 -10 16 -5 3
-10 -1 -10 -9z"/>
<path d="M1410 2209 c0 -5 5 -7 10 -4 6 3 10 8 10 11 0 2 -4 4 -10 4 -5 0 -10
-5 -10 -11z"/>
<path d="M1520 2207 c0 -8 6 -14 14 -14 8 0 12 6 9 14 -3 7 -9 13 -14 13 -5 0
-9 -6 -9 -13z"/>
<path d="M1481 2200 c0 -8 4 -22 9 -30 12 -18 12 -2 0 25 -6 13 -9 15 -9 5z"/>
<path d="M1747 2197 c-3 -9 -13 -17 -22 -17 -19 0 -16 -18 8 -44 10 -11 15
-26 13 -33 -3 -7 -1 -13 5 -13 6 0 7 -5 3 -12 -4 -6 -3 -8 4 -4 6 3 17 0 24
-8 9 -9 25 -12 43 -8 l28 5 -24 -44 c-15 -28 -32 -45 -46 -47 -39 -6 -44 -24
-21 -74 22 -48 41 -59 90 -53 15 2 26 0 25 -4 -1 -3 9 -20 22 -36 22 -29 23
-29 16 -5 -23 75 -34 87 -63 69 -27 -17 -51 -5 -63 31 -6 16 -18 30 -26 30 -8
0 -11 5 -8 10 4 6 10 8 15 5 5 -3 18 -1 29 5 29 15 71 -7 78 -42 7 -35 23 -37
23 -2 0 29 -24 53 -52 54 -10 0 -18 6 -18 14 0 27 21 28 42 1 11 -14 23 -24
25 -21 3 3 -6 19 -21 36 -34 41 -34 60 1 29 23 -21 25 -22 18 -4 -4 11 -10 30
-12 42 -7 32 -31 49 -45 35 -7 -7 -22 -12 -34 -12 -17 0 -25 9 -34 35 -6 19
-18 35 -26 35 -8 0 -14 5 -14 11 0 6 8 9 19 6 10 -2 25 0 34 4 27 15 67 -7 73
-41 4 -16 10 -30 15 -30 12 0 12 47 0 54 -4 3 -6 17 -3 31 2 15 0 25 -7 25 -6
0 -11 -4 -11 -10 0 -14 -87 -13 -92 2 -3 7 -7 6 -11 -5z"/>
<path d="M1975 2200 c-3 -5 -1 -10 4 -10 6 0 11 5 11 10 0 6 -2 10 -4 10 -3 0
-8 -4 -11 -10z"/>
<path d="M1590 2181 c0 -11 4 -22 9 -25 4 -3 6 6 3 19 -5 30 -12 33 -12 6z"/>
<path d="M2128 2193 c6 -2 18 -2 25 0 6 3 1 5 -13 5 -14 0 -19 -2 -12 -5z"/>
<path d="M2212 2160 c-16 -26 -15 -35 3 -20 8 6 19 9 25 5 15 -9 12 11 -3 23
-9 8 -16 6 -25 -8z"/>
<path d="M1240 2164 c0 -6 -12 -16 -26 -23 -24 -10 -26 -16 -21 -50 5 -37 -13
-88 -30 -84 -15 2 -43 -18 -43 -32 0 -7 6 -20 13 -27 6 -8 17 -23 23 -33 6
-11 21 -24 33 -30 16 -7 21 -16 18 -32 -2 -13 0 -23 4 -23 5 0 9 13 9 28 0 31
8 44 21 36 5 -3 5 -13 0 -22 -5 -9 -15 -31 -21 -49 -12 -32 -40 -47 -59 -32
-6 5 -9 6 -6 3 2 -4 0 -15 -6 -25 -7 -14 -5 -23 9 -37 10 -10 28 -38 40 -62
13 -25 21 -35 18 -22 -4 24 1 27 23 13 14 -9 20 -65 8 -77 -3 -3 -17 -7 -31
-8 -13 0 -29 -9 -35 -19 -10 -16 -9 -17 16 -10 16 4 44 8 63 8 28 0 37 -5 48
-27 15 -32 32 -37 32 -10 0 25 -31 52 -58 52 -24 0 -28 10 -10 28 9 9 17 5 35
-14 13 -15 27 -24 30 -21 3 4 -13 24 -36 46 -22 22 -41 47 -41 56 0 9 5 13 10
10 6 -4 9 -9 6 -13 -2 -4 10 -18 27 -32 27 -22 30 -23 23 -5 -4 11 -12 32 -18
47 -11 32 -32 42 -48 22 -20 -23 -39 -16 -61 21 -12 19 -28 35 -37 35 -18 0
-11 10 10 14 34 6 58 19 58 31 0 24 21 28 36 6 8 -12 20 -21 26 -21 5 0 -4 16
-21 35 -38 44 -41 68 -3 34 35 -33 58 -32 54 2 -4 33 20 53 64 54 35 2 41 -4
25 -20 -5 -6 -11 -23 -13 -40 -3 -26 -7 -30 -33 -31 -16 -1 -36 -2 -42 -3 -8
-1 -13 -17 -13 -43 1 -39 2 -41 14 -25 8 10 12 27 9 38 -4 15 -2 18 13 12 10
-4 13 -8 7 -10 -6 -2 -9 -12 -6 -22 3 -10 -2 -32 -11 -49 -20 -39 -20 -48 -1
-32 8 7 15 21 15 31 0 23 13 24 30 4 10 -12 8 -16 -13 -24 -28 -11 -41 -39
-31 -65 10 -26 24 -19 24 13 0 16 6 33 13 40 18 14 90 12 78 -3 -5 -6 -11 -24
-13 -41 -3 -28 -6 -30 -43 -30 l-40 0 -2 -50 -3 -50 17 30 c24 44 29 12 5 -36
-11 -22 -15 -38 -8 -36 6 2 15 13 21 25 10 23 26 25 33 4 2 -7 -3 -12 -12 -12
-21 0 -38 -35 -30 -65 7 -27 26 -24 23 3 -3 32 1 41 21 52 25 13 74 2 61 -14
-5 -6 -11 -24 -13 -41 -2 -21 -8 -30 -20 -30 -10 0 -17 5 -15 10 1 6 8 9 15 9
7 -1 12 10 12 27 0 22 -5 29 -19 29 -18 0 -37 -27 -26 -38 3 -3 5 0 5 6 0 7 7
12 15 12 23 0 18 -15 -10 -30 -14 -8 -28 -24 -30 -37 -3 -13 -7 -35 -10 -50
l-6 -28 20 25 c28 36 33 22 10 -29 -11 -24 -17 -46 -15 -49 3 -2 11 8 18 24 6
16 13 30 14 32 3 6 34 -11 34 -19 0 -4 -12 -14 -27 -21 -19 -9 -27 -20 -25
-33 14 -98 13 -95 38 -78 29 19 32 3 4 -22 -19 -17 -19 -18 4 -36 13 -11 29
-19 34 -19 15 0 42 -93 37 -129 -6 -47 -46 -83 -97 -87 -65 -6 -122 25 -103
56 3 4 -2 10 -10 14 -11 4 -15 20 -15 56 0 39 4 53 20 62 11 7 20 18 20 25 0
15 37 36 50 28 5 -3 12 6 16 19 5 20 -1 32 -25 57 -17 17 -31 37 -31 45 0 8
-5 14 -11 14 -17 0 -1 -51 22 -71 20 -18 25 -35 10 -41 -5 -1 -30 -22 -55 -46
-45 -42 -45 -43 -39 -94 3 -29 12 -63 20 -77 7 -15 13 -32 13 -38 0 -7 3 -12
8 -11 13 4 52 -13 52 -22 0 -5 6 -7 13 -5 6 3 30 7 52 9 22 3 43 5 46 5 14 2
48 39 42 45 -4 4 -1 4 8 1 12 -5 14 1 11 31 -4 30 -2 36 10 31 11 -4 14 1 10
19 -2 13 -8 24 -13 24 -5 0 -5 7 -2 17 5 12 3 14 -8 8 -11 -7 -12 -6 -3 6 9
10 8 24 -2 54 -7 22 -11 28 -9 13 6 -32 -10 -38 -20 -8 -4 11 -10 18 -15 15
-14 -9 -22 14 -11 32 10 17 10 16 11 -2 1 -11 4 -14 7 -7 7 17 -25 64 -39 56
-5 -4 -14 0 -19 7 -12 19 -11 62 0 55 5 -4 12 0 14 6 4 10 8 9 16 -2 9 -12 11
-9 10 15 0 29 -17 81 -19 60 -1 -11 -39 35 -40 49 0 4 11 5 25 2 17 -4 25 -2
26 6 1 7 5 0 10 -17 6 -22 7 -15 4 27 -3 45 -1 59 11 66 11 6 14 16 10 29 -5
15 -13 19 -35 15 -23 -3 -33 1 -44 19 -25 40 -30 69 -13 69 9 0 21 9 28 20 12
19 14 17 23 -22 7 -27 13 -37 17 -28 3 9 -2 31 -11 50 -19 40 -19 48 -4 76 7
12 8 25 2 35 -6 10 -9 10 -9 1 0 -16 -48 -6 -72 16 -18 15 -26 78 -9 67 5 -3
12 -1 16 5 4 6 9 8 13 6 4 -2 8 12 10 32 1 21 7 39 12 40 16 6 12 42 -5 43 -8
1 -23 2 -33 3 -21 1 -43 21 -60 53 -17 30 -15 36 8 30 24 -6 44 26 55 90 5 35
4 43 -14 52 -25 14 -34 14 -26 1 8 -13 -8 -13 -21 0 -7 7 -16 4 -28 -9 -18
-20 -18 -19 -42 7 -13 15 -24 22 -24 16z m21 -41 c7 -77 8 -83 18 -83 5 0 9
14 9 31 -1 20 6 37 17 45 22 16 91 16 75 0 -5 -5 -10 -21 -10 -35 0 -42 -14
-55 -49 -48 -37 8 -44 -3 -39 -55 4 -32 4 -32 14 -9 6 14 13 20 17 15 3 -6 -3
-29 -14 -53 -12 -28 -15 -41 -6 -39 6 3 13 15 15 27 2 14 9 21 19 19 21 -4 29
-28 9 -28 -21 0 -45 -37 -40 -63 3 -16 0 -13 -10 8 -9 17 -15 35 -16 41 0 6
-11 16 -25 22 -19 9 -24 9 -22 -1 1 -6 -7 -12 -18 -12 -13 0 -25 11 -34 33 -8
17 -21 32 -29 32 -34 0 2 14 43 18 44 3 45 2 51 -27 8 -36 24 -41 24 -8 0 28
-17 47 -42 47 -10 0 -18 6 -18 13 0 26 13 26 37 1 13 -15 27 -24 30 -21 3 4
-7 20 -23 36 -33 35 -42 97 -15 104 29 8 31 7 32 -10z"/>
<path d="M1305 2100 c-3 -5 3 -10 15 -10 12 0 20 -6 18 -13 -2 -7 2 -15 7 -17
6 -3 11 7 13 23 3 23 0 27 -22 27 -14 0 -28 -4 -31 -10z"/>
<path d="M1235 2060 c20 -23 29 -21 19 4 -3 9 -13 16 -22 16 -13 0 -12 -3 3
-20z"/>
<path d="M1300 2073 c0 -6 8 -17 18 -24 16 -13 16 -13 2 6 -8 11 -16 22 -17
24 -2 2 -3 0 -3 -6z"/>
<path d="M1175 1958 c10 -31 25 -47 18 -18 -5 20 -3 22 15 18 15 -4 19 -2 15
8 -3 8 -16 14 -30 14 -21 0 -23 -3 -18 -22z"/>
<path d="M1775 2138 c13 -42 65 -60 65 -23 0 31 -13 45 -42 45 -26 0 -29 -3
-23 -22z m55 -12 c0 -24 -18 -28 -30 -6 -9 17 -8 20 10 20 11 0 20 -6 20 -14z"/>
<path d="M1903 2153 c-7 -3 -13 -12 -13 -21 0 -15 2 -15 17 1 18 18 16 27 -4
20z"/>
<path d="M1665 2135 c4 -11 9 -33 12 -50 8 -48 16 -45 10 4 -3 24 -11 49 -18
55 -9 8 -10 6 -4 -9z"/>
<path d="M1507 2089 c4 -13 8 -18 11 -10 2 7 -1 18 -6 23 -8 8 -9 4 -5 -13z"/>
<path d="M1582 2100 c0 -8 4 -26 8 -40 6 -20 8 -21 8 -5 0 11 -3 29 -8 40 -5
12 -8 14 -8 5z"/>
<path d="M850 2060 c0 -5 5 -10 11 -10 5 0 7 5 4 10 -3 6 -8 10 -11 10 -2 0
-4 -4 -4 -10z"/>
<path d="M1956 2057 c-26 -19 -17 -52 14 -52 21 0 26 6 28 33 4 35 -11 42 -42
19z m34 -21 c0 -14 -29 -31 -38 -22 -2 3 -2 12 1 21 8 19 37 20 37 1z"/>
<path d="M2280 2046 c0 -9 5 -16 10 -16 6 0 10 4 10 9 0 6 -4 13 -10 16 -5 3
-10 -1 -10 -9z"/>
<path d="M1526 2037 c3 -10 9 -15 12 -12 3 3 0 11 -7 18 -10 9 -11 8 -5 -6z"/>
<path d="M1602 2005 c0 -16 2 -22 5 -12 2 9 2 23 0 30 -3 6 -5 -1 -5 -18z"/>
<path d="M2307 2023 c-13 -3 -16 -10 -12 -21 4 -10 12 -30 19 -47 6 -16 11
-31 12 -33 1 -2 12 6 23 17 12 12 17 21 11 21 -12 0 -41 55 -33 64 4 3 4 5 2
5 -2 -1 -12 -3 -22 -6z"/>
<path d="M1702 1979 c6 -16 12 -29 13 -27 6 6 -8 58 -16 58 -4 0 -3 -14 3 -31z"/>
<path d="M1560 1970 c0 -5 5 -10 10 -10 6 0 10 5 10 10 0 6 -4 10 -10 10 -5 0
-10 -4 -10 -10z"/>
<path d="M1480 1920 c0 -11 4 -20 9 -20 5 0 7 9 4 20 -3 11 -7 20 -9 20 -2 0
-4 -9 -4 -20z"/>
<path d="M1731 1878 c10 -35 19 -72 20 -83 0 -11 3 -14 6 -7 6 15 -26 140 -38
147 -4 3 1 -23 12 -57z"/>
<path d="M1790 1935 c0 -2 5 -15 11 -29 11 -24 38 -30 55 -13 4 3 -3 5 -14 2
-11 -2 -23 3 -26 11 -3 8 1 14 9 14 7 0 17 5 20 10 4 6 -7 10 -24 10 -17 0
-31 -2 -31 -5z"/>
<path d="M1621 1920 c0 -8 4 -24 9 -35 5 -13 9 -14 9 -5 0 8 -4 24 -9 35 -5
13 -9 14 -9 5z"/>
<path d="M1340 1875 c-15 -19 -2 -37 30 -42 16 -2 20 3 20 27 0 23 -5 30 -19
30 -10 0 -24 -7 -31 -15z m40 -14 c0 -11 -26 -22 -34 -14 -12 12 -5 23 14 23
11 0 20 -4 20 -9z"/>
<path d="M898 1840 c2 -16 9 -30 14 -30 6 0 7 7 4 16 -3 9 -6 22 -6 30 0 8 -4
14 -8 14 -5 0 -7 -13 -4 -30z"/>
<path d="M1937 1843 c-10 -12 -14 -27 -10 -41 8 -32 21 -27 25 10 2 17 9 34
17 36 8 3 11 0 7 -7 -5 -7 1 -11 15 -11 16 0 20 -5 16 -20 -3 -11 -1 -20 4
-20 5 0 9 14 9 30 0 17 -5 30 -12 30 -7 0 -22 3 -33 6 -13 3 -27 -2 -38 -13z"/>
<path d="M1960 1814 c0 -13 18 -39 24 -34 2 3 -2 14 -10 24 -8 11 -14 16 -14
10z"/>
<path d="M1650 1799 c0 -5 5 -7 10 -4 6 3 10 8 10 11 0 2 -4 4 -10 4 -5 0 -10
-5 -10 -11z"/>
<path d="M1248 1784 c-4 -3 2 -14 13 -25 10 -10 19 -26 19 -34 0 -8 5 -15 11
-15 18 0 5 52 -17 66 -11 8 -23 11 -26 8z"/>
<path d="M1672 1750 c0 -14 2 -19 5 -12 2 6 2 18 0 25 -3 6 -5 1 -5 -13z"/>
<path d="M1200 1749 c0 -20 21 -49 32 -43 7 4 6 9 -2 14 -17 10 -2 33 17 26 8
-3 11 -1 8 4 -8 13 -55 13 -55 -1z"/>
<path d="M1831 1721 c-20 -13 -4 -51 19 -48 11 2 22 6 26 10 4 3 -3 5 -15 2
-14 -3 -21 1 -21 12 0 10 6 14 19 10 14 -3 18 -1 14 9 -6 16 -22 18 -42 5z"/>
<path d="M2071 1714 c0 -11 3 -14 6 -6 3 7 2 16 -1 19 -3 4 -6 -2 -5 -13z"/>
<path d="M1381 1661 c-16 -28 -13 -38 3 -15 18 23 35 10 19 -15 -9 -14 -8 -18
3 -18 8 0 14 10 14 24 0 13 0 26 1 31 1 17 -30 12 -40 -7z"/>
<path d="M1480 1653 c0 -4 5 -15 10 -23 8 -13 10 -13 10 2 0 9 -4 20 -10 23
-5 3 -10 3 -10 -2z"/>
<path d="M2007 1633 c-9 -2 -15 -8 -12 -13 3 -5 12 -7 20 -3 10 3 15 -1 15
-12 0 -10 -5 -14 -12 -9 -10 5 -10 4 -1 -6 15 -16 18 -14 27 23 7 28 2 30 -37
20z"/>
<path d="M2064 1623 c-16 -50 -25 -63 -44 -63 -12 0 -19 4 -15 9 3 5 0 13 -6
17 -7 4 -9 3 -6 -3 4 -6 -2 -13 -13 -16 -13 -3 -20 -14 -20 -30 0 -14 -3 -34
-7 -44 -4 -12 0 -10 15 7 19 22 21 23 22 6 0 -11 -7 -27 -16 -37 -14 -15 -14
-23 -3 -56 7 -21 12 -47 11 -58 -1 -11 -5 -36 -7 -55 l-5 -35 17 33 c9 17 21
32 25 32 12 0 -1 -41 -19 -62 -23 -26 -8 -58 28 -58 16 0 41 -7 55 -16 29 -19
67 -91 56 -108 -3 -6 -5 -18 -4 -27 4 -21 -66 -82 -84 -75 -8 3 -14 -1 -14
-10 0 -11 -6 -14 -22 -8 -57 17 -68 25 -68 44 0 11 -4 20 -10 20 -29 0 0 137
34 162 6 4 -2 12 -17 19 -33 15 -36 32 -3 23 23 -5 24 -4 18 43 -5 48 -25 75
-49 66 -16 -6 -18 23 -2 32 6 4 17 -2 25 -14 8 -12 20 -21 26 -21 5 0 -4 16
-22 36 -36 41 -32 59 5 24 l25 -23 -16 40 c-9 24 -26 45 -41 52 -13 6 -22 7
-18 2 3 -6 -3 -15 -14 -20 -20 -11 -32 -3 -44 32 -4 9 -13 17 -20 17 -8 0 -19
10 -25 23 -7 15 -11 17 -11 6 -1 -9 10 -29 24 -45 18 -20 21 -30 12 -36 -9 -6
-9 -8 0 -8 7 0 10 -7 7 -15 -4 -8 -2 -15 3 -15 5 0 10 -14 11 -32 2 -18 5 -34
8 -37 3 -4 4 14 3 39 -4 47 -2 50 32 50 18 0 20 -4 16 -27 -13 -64 -12 -67 8
-71 32 -6 46 -31 33 -56 -6 -11 -16 -24 -22 -28 -7 -5 -7 -17 2 -41 15 -43 15
-47 -3 -47 -12 0 -14 -9 -9 -42 4 -32 3 -39 -5 -28 -6 8 -11 24 -11 35 0 11
-7 31 -15 45 -14 25 -14 25 -8 -10 3 -19 10 -43 14 -52 5 -9 9 -31 9 -48 0
-18 6 -33 15 -36 8 -4 13 -9 11 -13 -7 -11 14 -52 23 -47 5 4 18 -5 29 -19 16
-21 21 -22 26 -9 4 10 13 13 26 9 11 -3 20 -2 20 3 0 8 15 12 55 13 16 0 17 2
5 9 -12 7 -11 12 4 29 11 12 25 21 33 21 15 0 14 -1 17 58 1 23 -1 42 -5 42
-7 0 -24 68 -21 82 1 4 -6 22 -16 40 -18 32 -42 49 -42 29 0 -6 7 -11 16 -11
8 0 13 -4 9 -9 -3 -5 2 -16 11 -25 29 -30 4 -38 -32 -11 -27 21 -38 24 -49 15
-22 -19 -26 5 -5 44 20 40 17 66 -6 66 -8 0 -14 5 -14 10 0 17 24 11 65 -17
33 -21 37 -22 22 -5 -11 11 -16 26 -12 32 11 18 24 1 36 -46 6 -24 16 -47 21
-50 12 -8 4 23 -22 83 -10 23 -16 52 -13 64 4 15 3 20 -5 15 -7 -4 -12 -15
-12 -25 0 -10 -6 -24 -14 -30 -15 -12 -49 -4 -41 10 3 4 12 6 20 2 8 -3 15 -1
15 5 0 6 3 17 6 26 5 13 -1 16 -27 15 -24 -1 -27 -3 -11 -6 12 -2 22 -7 22
-10 0 -9 -34 -32 -47 -33 -15 0 -9 50 7 60 18 11 81 5 108 -9 14 -8 22 -8 22
-1 0 5 -6 10 -13 10 -21 0 -58 90 -55 133 1 20 6 37 10 37 4 0 8 7 8 15 0 21
-19 19 -26 -2z m-25 -83 c10 0 24 -15 34 -35 22 -45 22 -45 -8 -43 -29 3 -45
19 -63 62 -11 25 -11 28 3 22 9 -3 24 -6 34 -6z m-22 -76 c1 -5 -8 -14 -22
-21 -28 -13 -30 -11 -13 17 13 20 29 22 35 4z m-92 -24 c3 -5 -1 -10 -9 -10
-9 0 -16 5 -16 10 0 6 4 10 9 10 6 0 13 -4 16 -10z"/>
<path d="M1869 1586 c-12 -22 -23 -31 -41 -30 -16 1 -24 -5 -25 -18 -1 -10 4
-18 11 -18 18 0 68 26 66 34 -1 4 1 12 3 19 3 7 15 1 31 -18 14 -16 25 -25 26
-18 0 6 -5 15 -11 19 -6 3 -18 19 -27 34 l-17 27 -16 -31z"/>
<path d="M2133 1563 c7 -12 64 -136 70 -153 4 -12 6 -11 6 2 1 24 -59 158 -71
158 -5 0 -7 -3 -5 -7z"/>
<path d="M1241 1541 c-10 -7 -11 -13 -2 -30 7 -12 17 -21 24 -20 25 3 38 -1
32 -11 -3 -5 -17 -10 -29 -10 -17 0 -27 9 -36 30 -12 28 -50 44 -50 20 0 -5 4
-10 10 -10 5 0 16 -13 24 -29 14 -27 66 -50 66 -29 0 5 5 6 10 3 26 -16 -7
-95 -40 -95 -26 0 -43 -26 -36 -55 4 -14 11 -23 16 -20 6 3 15 -5 21 -19 14
-31 41 -41 68 -27 23 13 42 14 40 4 -3 -21 3 -32 25 -47 l25 -16 -19 41 c-23
52 -37 61 -67 42 -21 -14 -25 -14 -43 2 -11 10 -20 24 -20 32 0 12 -12 17 -32
14 -5 0 -8 4 -8 9 0 6 9 10 19 10 11 0 23 5 26 10 3 6 15 10 25 10 13 0 17 5
14 14 -9 24 17 29 38 6 11 -12 22 -19 25 -16 3 3 -8 20 -26 38 -39 40 -40 56
-2 29 l30 -21 -17 41 c-9 23 -24 44 -34 47 -10 2 -18 14 -19 26 0 16 -2 17 -7
6 -8 -19 -34 -20 -39 -2 -3 6 2 12 11 12 9 0 16 5 16 10 0 12 -20 13 -39 1z"/>
<path d="M1890 1541 c0 -6 5 -13 11 -16 5 -4 15 -19 21 -33 12 -27 12 -27 16
-4 2 13 -4 32 -14 43 -18 20 -34 25 -34 10z"/>
<path d="M1847 1513 c-8 -14 12 -54 24 -47 8 4 7 9 -2 15 -11 8 -10 12 5 24
19 15 19 15 -1 15 -12 0 -24 -3 -26 -7z"/>
<path d="M1760 1485 c0 -5 5 -17 10 -25 5 -8 10 -10 10 -5 0 6 -5 17 -10 25
-5 8 -10 11 -10 5z"/>
<path d="M1170 1410 c0 -5 5 -10 11 -10 5 0 7 5 4 10 -3 6 -8 10 -11 10 -2 0
-4 -4 -4 -10z"/>
<path d="M1788 1414 c-3 -5 3 -27 13 -49 22 -47 24 -37 5 19 -7 21 -16 35 -18
30z"/>
<path d="M2111 1403 c-1 -12 4 -25 9 -28 12 -7 12 2 0 30 -8 19 -9 19 -9 -2z"/>
<path d="M1320 1351 c0 -6 5 -13 11 -16 5 -4 15 -19 22 -33 l11 -27 4 28 c2
19 -3 33 -15 43 -21 16 -33 18 -33 5z"/>
<path d="M1858 1343 c-3 -34 3 -68 14 -78 8 -7 9 -6 3 3 -4 8 -7 31 -7 53 1
39 -7 55 -10 22z"/>
<path d="M1172 1330 c0 -14 2 -19 5 -12 2 6 2 18 0 25 -3 6 -5 1 -5 -13z"/>
<path d="M1455 1340 c3 -5 8 -10 11 -10 2 0 4 5 4 10 0 6 -5 10 -11 10 -5 0
-7 -4 -4 -10z"/>
<path d="M1275 1301 c13 -27 37 -35 50 -18 3 4 2 5 -1 2 -4 -2 -16 1 -27 7
-19 10 -19 11 -3 20 12 7 22 5 34 -4 15 -12 16 -11 3 5 -7 9 -27 17 -42 17
-29 0 -29 0 -14 -29z"/>
<path d="M1830 1285 c0 -18 24 -85 30 -85 4 0 1 19 -7 42 -15 43 -23 59 -23
43z"/>
<path d="M2160 1278 c0 -11 30 -78 35 -78 3 0 -2 17 -10 37 -15 36 -25 52 -25
41z"/>
<path d="M1532 1250 c0 -14 2 -19 5 -12 2 6 2 18 0 25 -3 6 -5 1 -5 -13z"/>
<path d="M1500 1210 c0 -11 4 -20 9 -20 5 0 7 9 4 20 -3 11 -7 20 -9 20 -2 0
-4 -9 -4 -20z"/>
<path d="M2171 1180 c14 -31 19 -36 19 -24 0 6 -7 19 -16 30 -14 18 -14 18 -3
-6z"/>
<path d="M1969 1174 c-11 -14 -10 -19 10 -35 31 -25 46 -24 59 6 17 37 15 45
-10 44 -17 -1 -19 -2 -5 -6 20 -5 21 -12 2 -37 -12 -16 -17 -17 -30 -6 -19 16
-20 34 -1 27 10 -4 13 -1 9 9 -7 18 -17 18 -34 -2z"/>
<path d="M2200 1188 c0 -7 37 -78 46 -87 2 -2 4 0 4 5 0 11 -49 92 -50 82z"/>
<path d="M2050 1141 c-16 -38 -7 -51 36 -51 40 0 38 -3 19 44 -18 44 -38 46
-55 7z m49 -17 c11 -26 11 -26 -16 -19 -36 9 -38 12 -23 30 17 21 25 19 39
-11z"/>
<path d="M1511 1144 c0 -11 3 -14 6 -6 3 7 2 16 -1 19 -3 4 -6 -2 -5 -13z"/>
<path d="M2303 1145 c0 -8 4 -12 9 -9 5 3 6 10 3 15 -9 13 -12 11 -12 -6z"/>
<path d="M967 1131 c-4 -17 -3 -21 5 -13 5 5 8 16 6 23 -3 8 -7 3 -11 -10z"/>
<path d="M1937 1121 c-3 -11 1 -22 9 -25 8 -3 11 0 7 10 -3 7 0 14 6 14 20 0
24 -31 7 -48 -15 -15 -18 -15 -26 -2 -8 13 -10 13 -10 -2 0 -29 21 -31 48 -5
l26 26 -24 26 c-28 30 -36 31 -43 6z"/>
<path d="M1410 1084 c0 -4 7 -12 15 -18 12 -10 12 -13 0 -30 -14 -19 -15 -19
-35 -1 -19 17 -19 19 -2 31 16 13 16 13 -1 14 -28 0 -32 -29 -6 -56 l23 -24
23 22 c27 25 27 61 1 66 -10 2 -18 0 -18 -4z"/>
<path d="M2220 1083 c0 -6 8 -17 18 -24 16 -13 16 -13 2 6 -8 11 -16 22 -17
24 -2 2 -3 0 -3 -6z"/>
<path d="M2035 1043 c4 -21 8 -39 9 -41 6 -5 36 10 36 19 0 4 -6 6 -14 3 -16
-6 -31 25 -17 39 16 16 46 3 43 -18 -3 -16 -1 -17 8 -8 22 21 3 43 -36 43
l-36 0 7 -37z"/>
<path d="M1975 1044 c-29 -23 -29 -24 -11 -41 18 -17 19 -17 12 1 -6 18 9 46
25 46 5 0 9 -11 9 -25 0 -14 -5 -25 -12 -25 -9 0 -9 -3 0 -12 18 -18 33 9 25
42 -9 38 -16 40 -48 14z"/>
<path d="M1452 1028 c-23 -36 -17 -52 25 -63 31 -7 46 4 33 25 -8 13 -10 12
-10 -3 0 -15 -3 -16 -22 -6 -32 16 -31 15 -18 39 9 17 14 19 26 9 8 -6 14 -7
14 -1 0 5 -6 15 -14 21 -11 9 -18 5 -34 -21z"/>
<path d="M2346 1040 c7 -28 12 -35 18 -29 2 2 -2 15 -10 29 l-15 25 7 -25z"/>
<path d="M2250 1035 c0 -9 53 -100 79 -135 37 -51 131 -153 155 -169 17 -11
-60 77 -85 99 -17 14 -78 101 -108 153 -29 51 -41 66 -41 52z"/>
<path d="M1320 1008 c1 -21 2 -21 11 -5 8 14 14 16 25 6 20 -16 17 -36 -5 -49
-16 -8 -20 -6 -24 8 -3 10 -5 6 -6 -11 -1 -27 -1 -27 28 -12 41 20 45 32 27
60 -21 32 -56 34 -56 3z"/>
<path d="M1602 1000 c0 -14 2 -19 5 -12 2 6 2 18 0 25 -3 6 -5 1 -5 -13z"/>
<path d="M896 970 c-13 -50 -23 -130 -16 -130 10 0 34 125 27 142 -3 7 -7 2
-11 -12z"/>
<path d="M2336 953 c53 -83 67 -103 71 -103 3 0 -3 12 -13 28 -53 82 -67 102
-71 102 -3 0 3 -12 13 -27z"/>
<path d="M1430 922 c0 -54 16 -61 53 -23 35 34 30 47 -21 57 -32 6 -32 6 -32
-34z m60 8 c0 -14 -31 -40 -41 -35 -10 7 -12 38 -3 47 7 8 44 -3 44 -12z"/>
<path d="M1362 934 c-30 -21 -28 -41 7 -58 36 -19 50 -6 42 36 -8 38 -19 43
-49 22z m38 -30 c0 -14 -3 -23 -7 -21 -5 2 -16 7 -27 11 -15 5 -16 9 -6 21 20
24 40 18 40 -11z"/>
<path d="M1950 930 c6 -11 13 -20 16 -20 2 0 0 9 -6 20 -6 11 -13 20 -16 20
-2 0 0 -9 6 -20z"/>
<path d="M2206 927 c3 -10 9 -15 12 -12 3 3 0 11 -7 18 -10 9 -11 8 -5 -6z"/>
<path d="M1572 910 c0 -14 2 -19 5 -12 2 6 2 18 0 25 -3 6 -5 1 -5 -13z"/>
<path d="M2230 905 c0 -15 18 -40 24 -34 3 3 -1 14 -9 25 -8 10 -14 15 -15 9z"/>
<path d="M1080 886 c0 -9 5 -16 10 -16 6 0 10 4 10 9 0 6 -4 13 -10 16 -5 3
-10 -1 -10 -9z"/>
<path d="M1980 881 c0 -5 7 -12 16 -15 14 -5 15 -4 4 9 -14 17 -20 19 -20 6z"/>
<path d="M1590 860 c0 -11 4 -20 9 -20 5 0 7 9 4 20 -3 11 -7 20 -9 20 -2 0
-4 -9 -4 -20z"/>
<path d="M2066 833 c21 -29 42 -53 46 -53 8 0 -5 17 -57 75 -14 17 -9 6 11
-22z"/>
<path d="M2269 843 c6 -10 22 -29 37 -43 28 -25 26 -17 -8 33 -21 30 -45 38
-29 10z"/>
<path d="M1541 835 c0 -5 7 -32 15 -60 l14 -50 -5 44 c-5 39 -25 92 -24 66z"/>
<path d="M2020 831 c0 -6 4 -13 10 -16 6 -3 7 1 4 9 -7 18 -14 21 -14 7z"/>
<path d="M1600 821 c0 -6 4 -13 10 -16 6 -3 7 1 4 9 -7 18 -14 21 -14 7z"/>
<path d="M1670 811 c0 -6 4 -13 10 -16 6 -3 7 1 4 9 -7 18 -14 21 -14 7z"/>
<path d="M1781 794 c0 -11 3 -14 6 -6 3 7 2 16 -1 19 -3 4 -6 -2 -5 -13z"/>
<path d="M2387 768 c11 -13 28 -33 38 -45 10 -12 22 -20 27 -17 4 3 8 -1 8 -9
0 -17 32 -28 49 -18 6 4 -6 14 -28 24 -22 10 -52 33 -67 52 -15 19 -32 35 -38
35 -5 0 0 -10 11 -22z"/>
<path d="M2340 770 c0 -5 5 -10 11 -10 5 0 7 5 4 10 -3 6 -8 10 -11 10 -2 0
-4 -4 -4 -10z"/>
<path d="M856 748 c-3 -13 -5 -36 -5 -53 1 -21 4 -15 10 20 8 52 6 72 -5 33z"/>
<path d="M2130 754 c0 -10 49 -73 50 -63 0 3 -11 20 -25 39 -14 19 -25 30 -25
24z"/>
<path d="M2100 745 c0 -4 9 -18 20 -32 11 -14 20 -22 20 -18 0 4 -9 18 -20 32
-11 14 -20 22 -20 18z"/>
<path d="M2389 713 c34 -45 51 -60 51 -46 0 5 -19 27 -42 48 l-42 40 33 -42z"/>
<path d="M1576 695 c6 -31 11 -41 18 -34 2 2 -2 18 -10 34 l-14 30 6 -30z"/>
<path d="M1650 669 c0 -8 5 -21 10 -29 8 -12 9 -10 7 7 -4 26 -17 43 -17 22z"/>
<path d="M2201 641 c27 -53 43 -63 18 -12 -10 22 -23 43 -29 46 -6 4 -1 -12
11 -34z"/>
<path d="M828 617 c-3 -19 -2 -25 4 -19 6 6 8 18 6 28 -3 14 -5 12 -10 -9z"/>
<path d="M1670 610 c0 -5 5 -10 11 -10 5 0 7 5 4 10 -3 6 -8 10 -11 10 -2 0
-4 -4 -4 -10z"/>
<path d="M2240 571 c0 -6 4 -13 10 -16 6 -3 7 1 4 9 -7 18 -14 21 -14 7z"/>
<path d="M1625 380 c3 -5 8 -10 11 -10 2 0 4 5 4 10 0 6 -5 10 -11 10 -5 0 -7
-4 -4 -10z"/>
<path d="M807 340 c-4 -14 -6 -36 -6 -50 1 -22 2 -20 10 8 6 19 9 41 7 50 -3
12 -6 10 -11 -8z"/>
<path d="M645 90 c-3 -6 1 -7 9 -4 18 7 21 14 7 14 -6 0 -13 -4 -16 -10z"/>
</g>
</svg>
