<?xml version="1.0" standalone="no"?>
<!DOCTYPE svg PUBLIC "-//W3C//DTD SVG 20010904//EN"
 "http://www.w3.org/TR/2001/REC-SVG-20010904/DTD/svg10.dtd">
<svg version="1.0" xmlns="http://www.w3.org/2000/svg"
 width="900.000000pt" height="1200.000000pt" viewBox="0 0 900.000000 1200.000000"
 preserveAspectRatio="xMidYMid meet">
<metadata>
Created by potrace 1.10, written by Peter Selinger 2001-2011
</metadata>
<g transform="translate(0.000000,1200.000000) scale(0.100000,-0.100000)"
fill="#ab7a5f" stroke="none">
<path d="M4285 11881 c-114 -41 -165 -81 -295 -230 -88 -102 -196 -287 -266
-458 -53 -129 -64 -177 -64 -286 0 -109 -10 -143 -59 -197 -17 -19 -59 -75
-93 -125 l-62 -90 -2 -105 c-3 -287 -1 -263 -36 -302 -18 -19 -44 -49 -58 -67
-29 -39 -65 -56 -135 -66 -105 -15 -206 -70 -299 -162 -79 -79 -119 -145 -136
-226 -54 -259 -77 -385 -105 -567 -8 -58 -20 -127 -25 -155 -5 -27 -14 -86
-20 -130 -6 -44 -19 -143 -30 -220 -12 -77 -25 -174 -30 -215 -5 -41 -18 -136
-30 -210 -12 -74 -25 -162 -30 -195 -5 -33 -13 -87 -19 -120 -5 -33 -17 -116
-26 -185 -8 -69 -20 -153 -26 -187 -5 -34 -14 -138 -19 -230 -5 -92 -12 -181
-15 -198 -9 -49 -35 -386 -45 -585 -9 -187 -24 -322 -40 -373 -6 -20 -4 -31 7
-42 25 -25 44 -1 37 45 -7 44 -2 49 48 43 46 -6 50 -28 13 -63 -38 -36 -28
-52 40 -66 87 -18 105 -17 105 5 0 10 -7 24 -16 31 -23 20 -14 64 14 68 13 2
29 -1 35 -7 7 -5 19 -6 26 -2 18 12 48 2 56 -17 4 -11 -4 -26 -24 -44 -17 -15
-31 -34 -31 -42 0 -24 69 -40 168 -39 91 1 92 1 92 -22 0 -19 -6 -25 -32 -29
-98 -16 -152 -9 -435 54 -28 6 -67 10 -85 8 -27 -2 -34 -8 -36 -29 -2 -17 6
-37 22 -55 25 -28 26 -28 41 -10 15 19 16 19 67 -5 29 -13 65 -34 80 -47 l28
-23 -1 -135 -1 -135 37 -45 c20 -24 41 -44 46 -44 16 0 10 39 -12 82 -19 37
-20 51 -14 133 l7 91 102 2 c79 1 113 6 150 22 26 12 54 19 62 16 19 -7 19
-120 -1 -250 -8 -55 -15 -122 -15 -150 0 -28 -6 -96 -14 -151 -20 -133 -35
-258 -46 -380 -5 -55 -14 -140 -20 -190 -6 -49 -17 -151 -26 -225 -19 -174
-41 -334 -59 -435 -7 -44 -21 -125 -30 -180 -41 -250 -115 -622 -150 -760 -7
-27 -20 -84 -29 -125 -9 -41 -23 -100 -31 -130 -7 -30 -35 -143 -60 -250 -26
-107 -52 -213 -60 -235 -7 -22 -20 -74 -30 -115 -9 -41 -21 -86 -26 -99 -6
-14 -14 -43 -19 -65 -4 -23 -19 -79 -33 -126 -51 -176 -78 -278 -83 -316 -3
-21 -12 -67 -20 -102 -22 -92 -10 -110 86 -140 113 -35 155 -57 186 -99 15
-21 65 -74 110 -119 65 -63 84 -88 89 -118 6 -30 11 -36 28 -34 36 5 61 71 63
170 2 48 5 92 9 98 9 15 35 13 158 -16 62 -14 144 -32 182 -40 39 -8 97 -21
130 -28 99 -23 165 -35 260 -46 50 -6 108 -15 130 -20 22 -5 63 -10 90 -10 64
0 136 -20 216 -58 99 -48 160 -49 558 -15 79 7 93 -5 80 -70 -9 -46 -12 -177
-4 -177 3 0 22 19 43 42 44 49 142 98 194 98 30 0 47 -8 80 -37 24 -21 50 -47
59 -58 10 -11 20 -18 23 -15 2 3 8 74 12 158 8 178 2 171 132 156 175 -19 237
-6 309 64 58 58 96 77 273 136 131 43 196 57 425 91 61 9 130 23 155 30 25 7
81 20 125 30 44 9 100 23 125 31 25 7 91 22 146 34 56 11 142 33 190 49 49 16
123 35 164 42 108 17 158 52 201 142 61 125 161 192 272 180 30 -3 71 0 93 6
106 32 323 170 339 215 9 25 6 31 -31 64 -22 21 -69 60 -105 87 -90 70 -180
195 -336 464 -56 96 -163 321 -215 451 -98 248 -144 367 -179 465 -15 44 -38
105 -49 135 -12 30 -25 66 -30 80 -5 14 -18 50 -30 80 -12 30 -26 71 -32 90
-5 19 -13 40 -17 45 -4 6 -16 33 -26 60 -19 54 -27 73 -74 184 -17 40 -31 78
-31 83 0 4 -14 39 -31 76 -54 117 -76 164 -119 267 -23 55 -57 132 -75 170
-32 69 -80 182 -136 323 -16 39 -43 107 -60 150 -17 42 -46 111 -65 152 -47
105 -98 265 -91 284 5 12 21 16 72 16 111 0 350 57 480 114 22 10 41 19 43 21
11 10 -36 83 -87 136 -34 34 -61 70 -61 80 0 34 55 60 173 81 64 11 130 17
155 14 39 -5 42 -4 42 17 0 22 -24 65 -44 79 -6 4 -30 8 -53 8 -23 0 -45 5
-48 10 -4 6 7 10 24 10 35 0 34 -1 22 86 -15 99 -77 216 -170 320 -25 27 -59
77 -76 110 -16 32 -53 101 -82 152 -54 94 -123 234 -147 301 -38 102 -85 243
-101 301 -9 36 -23 85 -30 110 -22 81 -44 164 -64 245 -47 195 -72 293 -85
335 -8 25 -21 74 -31 110 -9 36 -23 83 -30 105 -7 22 -21 67 -30 100 -38 134
-91 300 -152 485 -36 107 -69 211 -74 230 -12 57 -37 120 -86 218 -69 139
-146 202 -346 286 -21 9 -53 16 -73 16 -19 0 -45 7 -59 16 -34 22 -90 15 -90
-11 0 -11 -10 -30 -23 -43 -34 -34 -26 -66 18 -72 27 -4 35 -10 35 -25 0 -31
-40 -31 -68 -1 -30 32 -44 32 -81 2 -35 -29 -28 -44 25 -52 21 -4 39 -8 39
-10 0 -2 -11 -15 -24 -29 -31 -33 -63 -26 -78 16 -12 34 -21 35 -73 9 -22 -11
-45 -20 -52 -20 -9 0 -8 -6 4 -20 10 -11 27 -20 38 -20 41 0 48 -15 21 -44
-38 -41 -72 -31 -90 27 -7 21 -44 22 -92 2 -47 -19 -40 -41 20 -60 17 -5 16
-9 -15 -35 -52 -45 -89 -35 -89 22 0 35 -19 43 -62 29 -37 -13 -83 -72 -74
-96 5 -13 15 -15 50 -10 45 7 64 -4 49 -27 -4 -7 -8 -22 -8 -33 0 -29 -50 -33
-67 -6 -7 12 -21 21 -30 21 -15 0 -18 -9 -18 -60 0 -63 15 -85 43 -62 12 10
39 15 66 13 8 -1 11 -7 7 -16 -3 -9 0 -25 6 -35 10 -15 10 -22 0 -32 -9 -9
-21 -7 -56 9 -24 12 -47 19 -50 16 -8 -8 -8 -107 0 -127 8 -20 41 -21 60 -1
30 30 90 12 65 -19 -8 -10 -7 -17 4 -26 8 -7 12 -16 9 -21 -9 -15 -71 -10 -84
6 -10 12 -16 13 -27 4 -10 -9 -12 -27 -7 -73 3 -34 9 -64 13 -68 4 -4 24 2 45
13 45 24 97 19 75 -7 -10 -12 -9 -20 1 -40 20 -37 1 -53 -43 -35 -61 24 -62
24 -59 -59 4 -106 4 -107 57 -69 50 36 76 30 68 -15 -3 -14 2 -35 11 -47 32
-46 -22 -66 -74 -27 -18 13 -33 18 -38 12 -5 -5 -7 -48 -4 -96 4 -79 6 -88 23
-88 11 0 22 6 25 14 7 18 59 40 73 31 6 -3 11 -26 11 -50 0 -24 4 -47 10 -50
13 -8 -10 -45 -28 -45 -8 0 -25 9 -39 20 -34 27 -63 26 -63 -1 0 -37 23 -153
32 -164 5 -6 18 1 34 18 18 20 34 27 52 25 24 -3 27 -7 28 -43 0 -22 4 -48 8
-57 22 -49 -28 -64 -76 -22 -36 30 -47 23 -58 -35 -9 -49 1 -61 52 -61 27 0
40 -5 48 -19 12 -24 4 -48 -19 -56 -9 -3 -22 -18 -28 -35 -6 -16 -18 -30 -27
-30 -18 0 -48 41 -45 62 6 46 -25 52 -68 13 l-28 -25 33 -27 c50 -43 39 -103
-16 -82 -19 7 -29 6 -43 -7 -18 -16 -20 -16 -39 1 -25 23 -25 40 0 72 11 14
20 32 20 40 0 15 -39 33 -72 33 -18 0 -20 -4 -14 -32 7 -35 -15 -78 -39 -78
-9 0 -21 12 -27 26 -7 15 -23 27 -40 31 -54 11 -24 83 35 83 14 0 29 5 32 10
8 13 -31 100 -45 100 -5 0 -22 -14 -37 -30 -17 -19 -35 -30 -48 -28 -17 2 -21
11 -23 53 -2 27 -8 55 -13 62 -7 8 -3 16 14 27 22 15 27 15 65 -6 22 -13 44
-20 48 -16 8 9 -16 170 -28 183 -6 6 -17 0 -30 -17 -15 -22 -28 -28 -55 -28
l-36 0 7 41 c4 24 2 46 -4 54 -14 17 -2 45 20 45 11 0 35 -10 55 -21 20 -12
38 -19 41 -16 3 3 3 45 -1 92 -9 99 -21 113 -65 70 -18 -17 -36 -25 -51 -23
-22 3 -24 8 -26 71 -1 73 12 93 46 69 30 -22 61 -35 68 -29 7 8 5 123 -3 150
-7 23 -37 22 -59 -3 -12 -13 -29 -20 -44 -18 -23 3 -26 8 -26 43 -1 22 -3 46
-5 54 -7 23 30 25 67 5 47 -25 56 -11 48 70 -7 60 -9 66 -30 66 -12 0 -28 -7
-35 -15 -13 -16 -55 -21 -64 -7 -2 4 -1 14 4 22 6 10 3 21 -7 33 -15 16 -15
19 -1 33 14 14 18 14 46 0 51 -27 62 -22 62 28 0 60 -10 106 -24 106 -6 0 -22
-9 -36 -20 -45 -35 -65 -26 -60 28 1 13 -4 29 -10 37 -18 22 35 32 59 11 18
-17 47 -21 54 -8 6 9 -15 113 -27 130 -6 10 -15 6 -35 -19 -32 -37 -61 -35
-61 5 0 14 -7 29 -16 34 -31 17 -5 33 42 26 49 -7 53 -1 30 44 -22 42 -60 72
-99 79 l-36 5 -3 -43 c-3 -37 -7 -45 -26 -47 -18 -3 -26 3 -35 27 -6 17 -18
31 -27 32 -8 1 -4 4 10 8 37 10 31 34 -13 44 -35 9 -66 40 -50 50 5 3 26 -1
48 -9 22 -7 74 -18 115 -24 41 -6 85 -13 96 -15 26 -6 120 -144 134 -195 8
-31 18 -110 50 -405 5 -38 15 -131 24 -205 8 -74 20 -182 25 -240 6 -58 13
-118 16 -135 2 -16 9 -77 14 -135 9 -98 31 -206 47 -231 11 -19 68 -37 97 -32
15 3 37 17 48 32 19 24 21 34 14 126 -3 55 -12 143 -20 195 -7 52 -16 147 -20
210 -6 105 -29 306 -54 470 -5 36 -15 131 -22 212 -13 162 -14 158 55 272 30
49 41 56 93 56 53 0 140 18 173 36 14 7 45 22 70 33 132 60 275 197 256 247
-5 12 -103 64 -121 64 -3 0 -5 -9 -5 -20 0 -30 -110 -131 -182 -167 -74 -36
-163 -61 -257 -69 -67 -6 -68 -7 -99 -53 -18 -26 -32 -50 -32 -55 0 -18 -62
-106 -75 -106 -15 0 -44 44 -85 128 -15 32 -38 62 -51 69 -21 10 -93 25 -230
47 -21 4 -42 13 -49 21 -7 8 -16 13 -20 10 -25 -16 -30 87 -5 115 7 8 10 21 7
29 -6 19 39 101 56 101 7 0 16 9 20 19 4 11 32 38 63 60 61 44 90 46 169 16
70 -27 97 -26 130 2 26 21 30 31 24 52 -4 14 -6 36 -6 48 2 26 -48 77 -103
105 -70 37 -123 89 -160 160 l-36 69 -4 196 c-4 211 5 275 47 318 19 20 19 20
41 -7 31 -38 91 -57 151 -48 29 4 52 14 58 24 10 18 43 22 53 6 9 -15 35 -12
35 3 0 7 -16 28 -35 47 -30 29 -43 34 -93 38 -39 3 -70 -1 -96 -12 -49 -21
-66 -20 -66 2 0 27 60 62 108 62 38 0 63 -9 195 -76 16 -8 33 -12 38 -8 21 13
6 36 -47 69 -79 51 -134 67 -213 63 l-66 -3 2 47 c3 45 29 106 73 168 29 40
118 100 150 100 56 1 164 30 187 52 20 19 25 20 33 8 5 -8 10 -18 10 -22 0 -3
17 -12 38 -19 66 -21 200 -99 230 -134 16 -18 42 -59 58 -91 l29 -59 -1 -245
c-1 -195 -4 -257 -18 -305 -16 -60 -13 -179 5 -191 15 -9 98 89 131 155 32 64
33 71 36 205 3 111 -1 163 -18 255 -34 185 -48 229 -110 356 -74 151 -131 217
-230 268 -65 33 -80 37 -150 37 -44 0 -82 5 -85 10 -13 21 -96 50 -142 50 -26
-1 -71 -9 -98 -19z m-199 -519 c-14 -14 -16 -14 -16 -1 0 20 23 44 29 28 2 -6
-4 -18 -13 -27z m-322 -821 c3 -5 -6 -17 -21 -26 -24 -16 -26 -16 -20 0 4 9 7
21 7 26 0 12 27 12 34 0z m121 -180 c7 -12 -12 -24 -25 -16 -11 7 -4 25 10 25
5 0 11 -4 15 -9z m1349 -487 c23 -9 20 -44 -3 -44 -29 0 -51 11 -51 25 0 20
27 29 54 19z m-575 -2138 c15 -8 40 -31 55 -50 18 -24 35 -36 51 -36 40 0 73
-40 114 -140 58 -140 60 -159 21 -203 -30 -34 -31 -38 -19 -75 14 -49 -5 -92
-59 -126 -20 -13 -57 -44 -82 -70 -48 -49 -69 -55 -126 -34 -29 10 -36 9 -53
-6 -33 -30 -92 -24 -139 13 -22 17 -44 31 -49 31 -20 0 -93 61 -108 89 -8 17
-15 45 -15 64 0 24 -8 41 -30 62 -27 26 -30 35 -30 89 0 83 32 213 59 240 12
11 36 26 53 32 22 7 35 20 42 42 16 46 51 66 141 78 115 16 143 16 174 0z
m1042 -1156 c27 0 28 -1 24 -52 -3 -52 -23 -88 -48 -88 -8 0 -19 -10 -25 -22
-6 -13 -11 -17 -11 -10 -1 8 -15 27 -32 44 -21 22 -27 34 -20 41 6 6 11 27 11
47 0 46 7 53 44 46 16 -3 41 -6 57 -6z m1082 -95 c10 -9 14 -30 13 -57 -2 -43
-3 -43 -42 -45 -77 -4 -185 -43 -213 -77 -15 -18 -31 -21 -31 -5 0 14 25 39
39 39 6 0 16 9 23 20 7 11 19 20 26 20 7 0 24 8 38 17 15 9 45 17 68 17 44 1
45 4 31 59 -6 23 -4 27 13 27 11 0 27 -7 35 -15z m-1281 -27 c33 -30 37 -39
41 -97 5 -56 3 -64 -13 -68 -10 -3 -21 -11 -24 -19 -7 -18 -36 -18 -36 0 0 7
8 16 18 18 25 7 28 91 5 140 -21 43 -51 54 -134 46 -27 -3 -49 -1 -49 3 0 5
35 9 78 9 75 0 80 -2 114 -32z m-202 -7 c0 -10 7 -32 15 -47 8 -16 15 -39 15
-51 0 -12 8 -35 17 -51 14 -25 26 -31 65 -36 27 -4 46 -11 43 -16 -9 -15 -84
-12 -100 3 -18 18 -55 102 -55 124 0 10 -13 33 -29 50 -31 35 -30 43 6 43 16
0 23 -6 23 -19z m1268 -24 c2 -15 -1 -27 -6 -27 -17 0 -34 29 -28 46 9 23 31
11 34 -19z m-807 -58 c-10 -27 -36 -70 -57 -96 -22 -27 -44 -57 -47 -67 -9
-23 -15 -18 -38 34 -16 36 -17 42 -3 47 9 3 20 17 25 30 5 13 13 22 18 19 4
-3 30 19 57 49 55 62 70 57 45 -16z m-280 1 c6 -27 3 -39 -14 -57 -24 -25 -47
-30 -47 -10 0 7 6 19 13 26 10 11 8 12 -10 7 -18 -6 -24 -2 -29 19 -8 30 1 42
36 48 39 7 44 3 51 -33z m-1723 -12 c2 -15 10 -32 18 -38 18 -16 18 -35 -3
-68 -9 -15 -17 -28 -18 -29 -1 -1 -18 2 -39 8 -31 9 -37 14 -33 30 3 13 -2 28
-14 40 -27 27 -22 65 8 62 11 -1 27 4 34 13 18 22 44 13 47 -18z m2306 0 c9
-12 16 -42 16 -66 0 -24 4 -52 10 -62 14 -27 25 -190 13 -190 -13 0 -23 34
-23 83 0 22 -6 51 -14 65 -14 28 -36 131 -36 170 0 28 15 28 34 0z m-2094 -18
c0 -5 -10 -12 -23 -15 -31 -8 -47 -37 -54 -95 -5 -40 -2 -53 17 -77 l22 -28
-22 -3 c-34 -5 -41 9 -47 88 -4 65 -2 74 19 97 33 36 88 56 88 33z m126 -21
c-3 -17 -6 -60 -6 -95 0 -35 -4 -64 -8 -64 -5 0 -8 35 -8 78 1 42 -3 85 -8 95
-6 13 -4 17 14 17 20 0 22 -4 16 -31z m1740 -14 c23 -17 31 -30 27 -44 -6 -23
-23 -28 -71 -23 -31 4 -33 6 -26 36 6 30 21 56 32 56 3 0 20 -11 38 -25z
m-1831 -65 c10 -16 -5 -50 -21 -50 -17 0 -18 -12 -2 -28 19 -19 0 -27 -20 -9
-10 10 -24 17 -30 17 -17 0 -15 32 4 58 16 23 58 30 69 12z m1852 -63 c-44
-36 -65 -131 -33 -143 8 -3 16 -14 19 -26 4 -12 12 -18 23 -16 28 5 27 25 -1
32 -20 5 -25 13 -25 36 0 37 38 65 75 56 32 -8 35 -51 5 -61 -26 -8 -25 -20 1
-46 17 -17 25 -19 44 -11 18 9 25 22 30 59 10 76 12 81 15 33 4 -67 2 -77 -21
-104 -43 -49 -187 -23 -203 37 -15 58 -7 102 29 141 19 21 39 35 45 31 8 -5 7
-10 -3 -18z m-2127 -42 c30 -30 60 -55 67 -55 7 0 13 -4 13 -9 0 -20 -13 -41
-24 -41 -20 0 -136 129 -136 151 0 22 30 5 80 -46z m1949 -22 c-1 -39 -2 -43
-9 -23 -12 36 -12 70 0 70 6 0 10 -21 9 -47z m-1609 29 c0 -4 -7 -18 -16 -30
-11 -16 -25 -22 -54 -22 -21 0 -41 4 -44 9 -6 10 30 24 55 22 9 -1 22 5 29 14
13 16 30 20 30 7z m2261 -38 c-87 -29 -131 -51 -131 -64 0 -6 -9 -10 -20 -10
-18 0 -19 3 -10 20 6 11 17 20 26 20 8 0 27 8 42 18 55 36 68 41 117 41 l50 0
-74 -25z m-2673 -23 c8 -4 14 -24 15 -42 2 -32 0 -34 -35 -37 -35 -3 -38 -1
-38 24 0 15 7 36 17 46 18 20 22 21 41 9z m1942 -21 c19 -24 80 -59 94 -54 11
4 16 1 16 -14 0 -11 6 -25 14 -31 11 -9 12 -20 4 -51 -12 -45 -17 -48 -39 -22
-8 9 -32 32 -53 50 -30 26 -86 122 -86 148 0 6 43 -16 50 -26z m-31 -93 c6 -8
14 -27 17 -44 6 -29 4 -30 -36 -37 -23 -3 -45 -4 -51 -1 -16 11 -10 41 16 69
27 29 38 32 54 13z m-1919 -26 c0 -3 -32 -6 -70 -6 -84 0 -94 13 -12 17 60 3
82 0 82 -11z m-150 -25 c0 -8 -3 -21 -6 -30 -5 -14 -9 -13 -29 6 -13 12 -21
26 -19 30 9 14 54 9 54 -6z m416 -52 c-4 -18 -13 -46 -21 -61 -8 -15 -15 -32
-15 -38 0 -5 -15 -28 -34 -49 l-33 -40 -15 31 c-14 28 -13 33 6 65 37 62 99
137 109 131 5 -3 6 -20 3 -39z m-276 -29 c13 -14 30 -23 37 -21 15 6 37 -30
27 -46 -4 -7 -13 -2 -25 13 l-18 24 -10 -28 c-12 -30 -36 -32 -36 -3 0 10 -8
22 -18 27 -9 6 -17 21 -17 34 0 33 29 33 60 0z m2071 -77 l-7 -43 -7 53 c-8
57 1 90 14 54 5 -12 5 -41 0 -64z m-193 65 c-10 -2 -28 -2 -40 0 -13 2 -5 4
17 4 22 1 32 -1 23 -4z m-1518 -48 c29 -30 32 -37 20 -45 -8 -5 -25 -10 -37
-10 -12 0 -28 -3 -37 -6 -13 -5 -16 2 -16 39 0 40 7 53 31 56 3 1 21 -15 39
-34z m1360 13 c0 -13 7 -32 15 -42 17 -23 20 -66 5 -66 -6 0 -13 13 -16 29 -4
16 -19 43 -35 59 -31 31 -29 42 8 42 17 0 23 -6 23 -22z m214 3 c10 -11 16
-30 14 -43 -4 -23 -5 -23 -16 5 -6 15 -16 27 -22 27 -5 0 -10 7 -10 15 0 20
13 19 34 -4z m245 -90 c-7 -25 -18 -53 -26 -61 -41 -45 -66 -78 -75 -100 -10
-24 -11 -24 -32 25 l-23 50 24 22 c12 12 23 27 23 33 0 5 6 10 13 10 6 0 32
23 57 52 51 59 61 51 39 -31z m-276 26 c13 -21 13 -25 -2 -46 -16 -20 -19 -21
-31 -7 -7 10 -20 14 -31 11 -11 -4 -19 -3 -19 2 0 4 -3 18 -6 30 -5 19 -1 22
28 26 18 2 36 5 39 5 4 1 14 -8 22 -21z m-1919 -3 c9 -3 13 -10 10 -15 -7 -11
-64 -12 -64 -1 0 21 24 28 54 16z m446 -43 c0 -5 -9 -13 -20 -16 -11 -4 -27
-20 -35 -36 -9 -16 -20 -29 -25 -29 -5 0 -10 -17 -12 -37 -3 -30 -6 -34 -12
-20 -11 24 11 94 39 124 20 22 65 32 65 14z m148 -8 c6 -19 -26 -27 -44 -13
-12 11 -12 15 -2 22 17 11 40 6 46 -9z m1387 -4 c7 -22 -7 -39 -32 -39 -7 0
-13 -4 -13 -10 0 -12 -40 -13 -58 -1 -8 5 -12 17 -9 27 4 17 6 17 12 -4 5 -15
13 -21 22 -18 8 3 18 6 23 6 4 0 10 14 14 30 6 35 31 40 41 9z m294 -23 c34
-37 25 -60 -27 -64 -42 -3 -42 -3 -42 30 0 59 32 74 69 34z m-484 -7 c4 -11
21 -27 38 -34 18 -8 27 -14 20 -15 -17 0 -67 23 -75 35 -11 14 -10 35 1 35 5
0 13 -9 16 -21z m-1555 -21 c0 -7 -5 -20 -10 -28 -8 -12 -10 -9 -10 13 0 15 5
27 10 27 6 0 10 -6 10 -12z m321 -66 c2 -53 -1 -66 -21 -87 -26 -28 -63 -35
-54 -10 4 8 16 15 29 15 25 0 35 29 35 108 0 67 8 47 11 -26z m-61 12 c0 -8
-11 -19 -25 -24 -14 -5 -25 -14 -25 -20 0 -12 -27 -14 -33 -2 -2 4 -7 20 -11
35 -6 25 -4 28 12 23 11 -4 24 0 32 9 15 18 50 3 50 -21z m1903 -11 c-13 -2
-35 -2 -50 0 -16 2 -5 4 22 4 28 0 40 -2 28 -4z m91 -23 c-17 -33 -29 -38 -38
-14 -10 26 -7 32 17 37 12 2 25 5 29 6 3 0 0 -12 -8 -29z m-2310 -25 c22 -19
49 -42 59 -50 9 -8 26 -15 37 -15 16 0 20 -7 20 -37 0 -53 -13 -71 -28 -38 -6
14 -16 25 -20 25 -23 0 -122 113 -122 138 0 19 10 14 54 -23z m2109 18 c-7 -2
-13 -10 -13 -18 0 -7 -7 -18 -15 -25 -21 -17 -20 -89 2 -105 19 -14 11 -47
-10 -39 -15 6 -27 47 -27 95 0 36 37 99 58 98 11 0 12 -2 5 -6z m-1896 -20 c4
-10 14 -23 22 -30 21 -16 0 -17 -34 -1 -14 6 -25 19 -25 30 0 23 28 24 37 1z
m1723 -45 c-1 -28 -2 -30 -11 -15 -6 10 -8 25 -5 33 9 24 16 16 16 -18z m336
-15 c-3 -21 -6 -47 -7 -58 -1 -11 -5 -5 -10 15 -10 40 -4 80 12 80 8 0 9 -13
5 -37z m-86 -13 c0 -16 -4 -30 -9 -30 -5 0 -11 -9 -14 -20 -6 -25 -15 -25 -46
-1 -19 15 -22 23 -16 49 6 29 10 32 46 32 37 0 39 -2 39 -30z m-2225 -20 c20
-38 20 -37 -14 -54 -24 -13 -31 -13 -47 -2 -18 13 -18 15 1 50 24 44 40 45 60
6z m1931 -41 c36 -35 60 -51 78 -51 23 0 26 -5 26 -35 0 -20 -6 -36 -14 -39
-14 -5 -21 -1 -82 53 -47 43 -91 123 -67 123 4 0 31 -23 59 -51z m344 -25 c0
-19 -34 -34 -76 -34 -36 0 -45 3 -37 11 7 7 30 12 52 12 23 0 41 4 41 8 0 5 5
9 10 9 6 0 10 -3 10 -6z m-400 -43 c16 -39 7 -51 -41 -51 -41 0 -46 8 -28 43
24 46 52 48 69 8z m-1731 -33 c-1 -37 -2 -39 -9 -18 -12 36 -12 60 0 60 6 0
10 -19 9 -42z m-279 22 c0 -5 -9 -10 -21 -10 -11 0 -17 5 -14 10 3 6 13 10 21
10 8 0 14 -4 14 -10z m143 -31 c24 -44 17 -45 -23 -4 -29 30 -31 35 -14 35 11
0 26 -13 37 -31z m-199 -1 c12 -37 14 -78 6 -78 -6 0 -10 6 -10 14 0 8 -13 26
-30 39 -19 16 -25 27 -17 30 23 10 48 7 51 -5z m456 -5 c-1 -44 -49 -162 -75
-183 -8 -7 -15 -19 -15 -26 0 -25 -17 -15 -34 19 -13 28 -13 39 -4 65 7 18 17
32 23 32 6 0 28 23 48 50 34 45 57 63 57 43z m-306 -58 c3 -8 12 -12 19 -9 25
9 26 -21 1 -45 -21 -20 -25 -21 -30 -7 -3 9 -17 16 -30 16 -18 0 -24 5 -24 23
0 13 3 27 7 30 12 13 51 7 57 -8z m1844 -2 c-10 -2 -26 -2 -35 0 -10 3 -2 5
17 5 19 0 27 -2 18 -5z m-1925 -104 c12 -10 16 -18 10 -19 -30 0 -74 75 -55
94 3 4 10 -7 15 -25 5 -17 18 -40 30 -50z m1786 41 c21 -41 28 -86 12 -76 -5
3 -12 18 -16 33 -3 15 -20 40 -36 55 l-29 28 24 0 c18 0 29 -10 45 -40z
m-1616 13 c8 -7 -21 -43 -35 -43 -4 0 -8 11 -8 25 0 18 5 25 18 25 10 0 22 -3
25 -7z m297 -17 c30 -33 21 -56 -23 -56 -31 0 -35 4 -41 31 -3 17 -3 35 0 40
10 17 40 9 64 -15z m1769 -60 c-12 -39 -63 -107 -100 -134 -15 -11 -19 -8 -30
25 -9 28 -9 38 0 41 6 2 11 20 11 40 l0 36 16 -23 16 -23 46 52 c50 57 62 53
41 -14z m-2150 33 c34 -12 40 -24 15 -33 -25 -10 -74 -7 -74 4 0 6 5 10 10 10
6 0 10 7 10 15 0 18 -1 18 39 4z m1867 -14 c3 -14 3 -32 0 -41 -6 -15 -8 -15
-26 1 -10 9 -24 14 -29 10 -17 -10 -25 23 -11 40 20 25 59 19 66 -10z m71 -60
c-5 -14 -47 -19 -47 -5 0 6 5 21 11 32 11 21 12 21 25 3 8 -11 13 -24 11 -30z
m-1449 18 c-10 -2 -26 -2 -35 0 -10 3 -2 5 17 5 19 0 27 -2 18 -5z m1252 -17
c0 -8 3 -23 6 -33 5 -16 4 -16 -10 1 -18 22 -21 46 -6 46 6 0 10 -6 10 -14z
m-1320 -6 c0 -5 -3 -10 -8 -10 -11 0 -40 -59 -47 -98 -5 -25 -3 -33 12 -39 37
-14 44 -43 9 -43 -19 0 -24 6 -30 38 -11 66 -7 103 15 133 20 28 49 39 49 19z
m160 -4 c0 -8 -4 -17 -9 -21 -12 -7 -24 12 -16 25 9 15 25 12 25 -4z m1642
-13 c35 -33 37 -58 6 -49 -13 3 -31 6 -40 6 -13 0 -18 8 -18 28 0 49 13 53 52
15z m-1982 -45 c0 -34 -13 -29 -25 10 -5 16 -2 22 9 22 11 0 16 -10 16 -32z
m1568 5 c5 -18 -23 -16 -39 3 -11 14 -10 15 11 12 13 -1 25 -9 28 -15z m-1334
-19 c22 -8 20 -41 -3 -54 -35 -18 -61 -12 -61 13 0 38 27 55 64 41z m1970 -42
c2 -4 -2 -18 -9 -31 l-13 -24 -6 21 c-10 31 13 59 28 34z m-196 -13 c-10 -5
-18 -17 -18 -25 0 -8 -7 -17 -15 -20 -8 -4 -15 -14 -15 -24 0 -11 -4 -22 -10
-25 -6 -3 -10 4 -10 16 0 29 46 89 68 89 16 -1 16 -1 0 -11z m-2059 -34 c21
-19 46 -35 55 -35 9 0 16 -7 16 -15 0 -8 9 -15 20 -15 17 0 20 -7 20 -42 l0
-41 -22 19 c-12 10 -28 25 -36 32 -7 6 -18 12 -23 12 -20 0 -89 83 -89 108 0
21 18 14 59 -23z m1891 3 c0 -13 -4 -30 -9 -37 -8 -12 -11 -9 -16 11 -7 28 -1
48 16 48 5 0 9 -10 9 -22z m-1540 -42 c0 -20 -21 -25 -69 -19 -55 8 -52 21 7
26 26 2 50 4 55 5 4 1 7 -4 7 -12z m1788 2 c20 -20 14 -38 -12 -38 -14 0 -28
-4 -31 -10 -9 -15 -25 -12 -31 5 -4 9 4 23 17 35 28 23 41 24 57 8z m-293 -63
c32 -30 67 -55 77 -55 13 0 18 -8 18 -27 0 -50 -13 -56 -52 -26 -20 15 -47 36
-61 46 -37 27 -76 118 -49 117 4 0 34 -25 67 -55z m-1884 8 c14 -37 12 -41
-28 -52 -62 -17 -82 27 -32 71 24 21 47 13 60 -19z m2252 -33 c-3 -11 -10 -20
-15 -20 -6 0 -8 10 -4 23 3 12 6 33 7 47 l1 25 8 -27 c4 -15 6 -37 3 -48z
m-173 14 c0 -16 -16 -19 -25 -4 -8 13 4 32 16 25 5 -4 9 -13 9 -21z m-261 -61
c16 -35 2 -47 -43 -39 -34 6 -35 9 -25 29 24 44 51 48 68 10z m401 7 c0 -5
-16 -10 -35 -10 -19 0 -35 5 -35 10 0 6 16 10 35 10 19 0 35 -4 35 -10z
m-2280 -36 c-36 -8 -100 -9 -100 -2 0 5 26 7 58 7 31 -1 50 -3 42 -5z m210
-32 c0 -7 -4 -10 -10 -7 -5 3 -10 16 -10 28 0 18 2 19 10 7 5 -8 10 -21 10
-28z m-336 -87 c9 -17 16 -35 16 -42 0 -19 48 -66 60 -58 15 9 71 -5 64 -16
-17 -27 -124 4 -124 37 0 8 -4 14 -10 14 -5 0 -12 15 -16 34 -3 19 -19 47 -35
63 -35 34 -36 41 -6 52 19 7 23 5 29 -23 4 -17 14 -45 22 -61z m186 86 c0 -18
-18 -21 -30 -6 -10 13 -9 15 9 15 11 0 21 -4 21 -9z m230 -123 c-24 -47 -69
-108 -79 -108 -4 0 -12 14 -18 31 -13 33 -3 58 42 106 11 12 31 36 45 54 l25
33 3 -37 c2 -25 -4 -53 -18 -79z m-200 70 c0 -13 3 -40 6 -60 5 -31 4 -38 -10
-38 -13 0 -16 11 -16 60 0 33 4 60 10 60 6 0 10 -10 10 -22z m-56 -4 c11 -29
6 -72 -9 -78 -8 -3 -15 -13 -15 -22 0 -21 -24 -12 -29 12 -2 10 -10 23 -18 29
-23 17 -13 60 14 60 11 0 25 3 29 8 12 11 21 8 28 -9z m1834 -3 c23 -19 30
-51 12 -51 -5 0 -10 7 -10 15 0 8 -9 19 -20 25 -11 6 -18 15 -15 21 8 12 9 12
33 -10z m-183 -53 c4 -18 12 -38 17 -45 5 -7 8 -22 5 -35 -3 -20 -5 -19 -12
10 -4 17 -10 32 -14 32 -7 0 -41 53 -41 64 0 3 9 6 19 6 14 0 21 -10 26 -32z
m-1291 -17 c37 -38 30 -59 -18 -53 -34 4 -36 6 -36 43 0 48 15 50 54 10z
m1736 12 c-1 -33 -32 -96 -64 -131 -46 -49 -62 -52 -71 -14 -8 37 10 83 29 76
9 -3 29 10 51 35 35 38 55 51 55 34z m-293 -9 c11 -3 23 -14 26 -25 6 -22 37
-26 37 -4 0 8 4 15 9 15 10 0 8 -51 -3 -68 -12 -20 -36 -13 -36 9 0 18 -4 20
-25 15 -26 -7 -85 17 -85 34 0 10 29 29 45 30 6 0 20 -3 32 -6z m351 -102 c18
-25 18 -28 4 -28 -10 -1 -24 -3 -32 -5 -11 -3 -16 5 -18 29 -4 41 19 43 46 4z
m-1744 -12 c-41 -16 -60 -131 -26 -156 13 -10 14 -15 5 -25 -6 -6 -19 -9 -27
-6 -15 6 -22 60 -19 134 2 30 33 61 63 62 24 0 24 -1 4 -9z m161 0 c-3 -5 -13
-10 -21 -10 -8 0 -14 5 -14 10 0 6 9 10 21 10 11 0 17 -4 14 -10z m1149 -9 c3
-4 17 -6 31 -3 32 6 32 -6 0 -18 -29 -11 -55 -4 -55 16 0 15 16 19 24 5z
m-1499 -50 c-10 -16 -25 -3 -25 22 0 20 1 20 16 5 9 -9 13 -21 9 -27z m255
-37 c0 -17 -62 -57 -71 -46 -13 12 2 61 20 64 26 6 51 -3 51 -18z m1688 -26
c-4 -27 -28 -36 -28 -10 0 20 8 32 22 32 5 0 8 -10 6 -22z m211 10 c0 -7 -4
-22 -9 -33 -7 -17 -9 -15 -9 13 -1 17 4 32 9 32 6 0 10 -6 9 -12z m-2237 -20
c13 -7 37 -25 53 -40 16 -16 40 -28 52 -28 13 0 23 -4 23 -9 0 -5 9 -11 21
-14 17 -5 19 -9 10 -26 -6 -11 -11 -29 -11 -40 0 -12 -2 -21 -5 -21 -9 0 -120
87 -135 106 -30 37 -50 84 -36 84 2 0 14 -6 28 -12z m2125 -35 c4 -12 -34 -29
-44 -19 -3 3 -3 12 1 21 7 18 37 17 43 -2z m-212 -90 c23 2 30 -21 20 -69 l-6
-35 -28 28 c-16 15 -47 42 -69 58 -36 27 -62 71 -62 104 0 7 28 -10 63 -37 35
-28 72 -50 82 -49z m-1920 0 c18 -43 10 -53 -47 -53 -43 0 -47 10 -22 58 21
44 50 42 69 -5z m2215 31 c0 -3 -5 -14 -10 -25 -16 -28 -30 -23 -17 6 11 22
27 34 27 19z m-425 -79 c0 -25 -5 -30 -33 -36 -41 -8 -47 2 -27 41 22 42 60
39 60 -5z m-1653 -87 c-9 -9 -12 -7 -12 12 0 19 3 21 12 12 9 -9 9 -15 0 -24z
m-140 -5 c15 -15 28 -35 28 -46 0 -26 -24 -16 -28 12 -2 12 -14 26 -28 31 -13
5 -24 14 -24 20 0 18 23 11 52 -17z m-212 -27 c0 -13 7 -29 15 -36 8 -7 15
-20 15 -29 0 -9 7 -25 15 -35 8 -11 15 -27 15 -37 0 -20 46 -34 65 -19 13 11
45 4 45 -10 0 -5 -18 -11 -41 -15 -50 -9 -74 11 -109 88 -13 30 -39 64 -56 78
-27 20 -29 25 -16 31 35 14 52 9 52 -16z m472 -22 c-3 -37 -34 -102 -74 -153
-10 -13 -18 -33 -19 -45 0 -20 -1 -20 -10 3 -5 13 -17 35 -27 50 -17 24 -17
28 -2 57 9 17 20 29 26 27 6 -2 28 21 50 52 21 30 44 53 49 51 6 -2 9 -21 7
-42z m-292 -16 c36 -26 36 -30 6 -62 -27 -30 -36 -32 -36 -11 0 8 -8 15 -18
15 -21 0 -42 18 -42 37 0 10 42 40 58 43 2 0 16 -10 32 -22z m2070 -9 c0 -29
-38 -98 -71 -132 -16 -16 -29 -36 -29 -44 0 -14 -3 -14 -20 2 -14 13 -20 31
-20 62 0 46 14 58 23 21 5 -19 13 -13 54 49 47 70 63 81 63 42z m-1990 -33 c0
-25 -6 -38 -25 -50 -30 -20 -55 -22 -37 -4 7 7 12 20 12 30 0 10 7 18 15 18 8
0 15 9 15 20 0 11 5 20 10 20 6 0 10 -15 10 -34z m293 -22 c36 -34 30 -48 -21
-52 -42 -3 -42 -3 -42 31 0 55 19 62 63 21z m-139 -153 c3 -5 3 -23 0 -41 -8
-37 -24 -22 -24 23 0 26 13 36 24 18z m1756 -36 c5 -3 10 -11 10 -17 0 -16 41
-58 57 -58 8 0 13 -13 13 -35 0 -32 2 -35 29 -35 17 0 33 -5 36 -11 10 -15
-47 -103 -68 -107 -21 -4 -91 62 -85 80 3 7 15 15 29 18 19 5 24 12 24 35 0
27 -4 30 -33 33 -18 2 -43 14 -57 28 -13 13 -31 24 -40 24 -18 0 -75 40 -75
52 0 10 143 3 160 -7z m-1835 -62 c12 -10 33 -25 45 -33 13 -8 30 -22 38 -31
8 -9 22 -14 32 -12 14 4 19 -3 24 -34 3 -21 2 -51 -3 -68 -5 -16 -10 -22 -10
-13 -1 10 -25 36 -53 58 -58 46 -107 105 -108 133 0 9 3 17 6 17 3 0 16 -8 29
-17z m2079 -42 l28 -30 -36 -37 c-20 -20 -36 -45 -36 -54 0 -10 -9 -29 -20
-43 -14 -17 -20 -40 -20 -74 0 -45 2 -49 33 -63 l32 -15 -30 -3 c-48 -6 -55
-18 -55 -96 -1 -65 -2 -69 -15 -52 -8 11 -15 27 -15 37 0 9 -9 28 -21 43 -31
40 -53 30 -160 -79 -42 -43 -40 -83 7 -113 22 -15 43 -21 55 -17 14 5 28 0 44
-15 18 -17 33 -21 59 -18 39 4 48 -10 21 -32 -13 -11 -31 -8 -101 16 -100 33
-129 56 -137 110 -4 24 -17 50 -32 64 -19 18 -25 33 -24 64 1 38 1 39 9 13 5
-16 14 -35 21 -43 18 -22 67 -17 92 9 12 12 35 31 50 40 15 10 32 29 37 43 5
13 14 24 19 24 6 0 3 17 -5 38 -20 51 -120 142 -157 142 l-28 0 26 37 c14 21
25 43 25 50 0 7 5 13 11 13 6 0 9 -7 5 -15 -3 -8 -1 -26 4 -39 10 -26 64 -86
78 -86 5 0 17 -9 27 -20 12 -13 31 -20 57 -20 37 0 39 2 64 58 15 31 30 59 34
62 7 5 25 50 23 60 0 3 -4 20 -8 38 -8 40 3 41 39 3z m-292 -23 c-6 -6 -15 -8
-19 -4 -4 4 -1 11 7 16 8 5 17 7 19 4 3 -2 -1 -10 -7 -16z m-1512 -103 c0 -19
-35 -68 -70 -98 l-40 -34 44 -28 c24 -15 49 -38 55 -51 6 -13 19 -24 30 -24
50 0 69 -27 24 -32 -21 -2 -36 -16 -60 -53 -18 -27 -36 -55 -41 -61 -44 -50
-39 -112 12 -143 18 -12 43 -21 54 -21 11 0 23 -4 27 -9 9 -16 95 -25 108 -12
16 16 27 13 27 -8 0 -30 -21 -41 -50 -26 -14 8 -37 14 -51 15 -15 0 -40 7 -55
15 -40 21 -80 19 -104 -5 -17 -17 -20 -33 -20 -103 0 -99 21 -150 64 -155 31
-4 91 37 101 68 3 11 14 20 24 20 26 0 59 41 69 85 l9 40 8 -39 8 -39 -87 -84
c-48 -45 -95 -83 -105 -83 -10 0 -35 7 -56 16 -27 11 -41 12 -48 5 -6 -6 -17
-11 -24 -11 -10 0 -11 4 -2 18 9 14 9 45 1 117 -11 114 -28 139 -85 128 -18
-3 -34 -9 -37 -13 -3 -4 -18 -14 -35 -23 -16 -8 -40 -25 -52 -37 -48 -45 -16
-140 48 -140 15 0 29 -6 32 -13 2 -7 26 -23 53 -37 l49 -25 -32 -3 c-35 -3
-134 38 -171 71 -19 18 -22 27 -16 63 5 38 3 43 -25 63 -50 36 -62 78 -55 190
9 141 17 164 60 181 27 11 41 26 57 58 24 52 68 82 119 82 43 0 67 28 77 88 5
28 11 37 26 38 11 0 43 12 70 27 51 27 65 31 65 22z m1854 -1 c9 -3 16 -12 16
-19 0 -7 7 -18 15 -25 14 -12 22 -80 9 -80 -3 0 -14 10 -24 23 -16 19 -22 20
-39 10 -60 -37 -68 16 -13 80 17 20 15 19 36 11z m-334 -114 c36 -35 37 -50 7
-77 -13 -11 -31 -30 -40 -43 -15 -22 -56 -22 -42 0 3 6 -3 23 -14 39 -26 36
-26 37 -1 44 11 3 22 12 25 21 3 9 7 23 10 31 7 22 21 18 55 -15z m450 -104
c0 -14 5 -28 10 -31 31 -19 0 -77 -64 -123 -52 -38 -56 -38 -56 -12 0 12 7 20
18 20 22 0 82 69 82 95 0 12 -7 30 -15 41 -20 26 -19 34 5 34 15 0 20 -7 20
-24z m-165 -76 c7 -31 -13 -84 -30 -81 -5 0 -16 20 -24 43 -13 39 -13 42 9 60
27 22 36 17 45 -22z m80 21 c8 -14 -28 -31 -44 -21 -8 4 -10 13 -7 19 9 13 43
15 51 2z m-249 -64 c3 -13 4 -41 2 -63 -3 -34 -6 -39 -30 -42 -34 -4 -77 26
-77 53 0 20 62 74 86 75 7 0 15 -11 19 -23z m-1571 -37 c17 -34 19 -34 46 -20
24 13 26 -5 4 -34 -8 -11 -15 -33 -15 -49 0 -19 -4 -28 -12 -25 -7 3 -37 13
-65 22 -58 19 -62 28 -35 77 36 69 53 75 77 29z m1655 -44 c0 -13 10 -30 23
-39 22 -16 22 -16 -10 -16 -32 -1 -33 0 -33 39 0 22 5 40 10 40 6 0 10 -11 10
-24z m-1651 -231 c13 -13 12 -17 -2 -33 -9 -10 -17 -26 -17 -35 0 -11 -8 -17
-24 -17 -13 0 -29 -7 -36 -15 -12 -14 -15 -14 -30 0 -19 17 -36 98 -24 116 9
15 114 2 133 -16z m-261 -69 c3 -62 -9 -89 -30 -68 -7 7 -23 12 -36 12 -22 0
-71 36 -72 52 0 16 87 69 110 66 23 -3 25 -7 28 -62z"/>
<path d="M4550 7695 c-16 -19 -5 -32 29 -37 33 -4 45 -27 31 -58 -45 -101 -83
-110 -142 -33 -35 45 -35 61 -1 74 56 21 51 59 -7 59 -39 0 -61 -14 -80 -51
-14 -26 16 -83 75 -142 80 -78 118 -72 170 28 17 31 36 66 43 78 15 26 7 67
-15 85 -23 17 -88 15 -103 -3z"/>
<path d="M4698 7591 c-9 -11 -31 -49 -49 -86 -24 -51 -30 -73 -25 -100 8 -38
45 -65 91 -65 14 0 42 -7 62 -15 71 -30 103 -15 103 48 0 60 -31 107 -56 86
-8 -6 -10 -23 -7 -44 7 -46 -14 -54 -84 -30 -78 27 -81 64 -10 142 23 25 51
18 62 -17 3 -11 15 -20 26 -20 26 0 25 42 -2 86 -17 29 -26 34 -58 34 -24 0
-42 -7 -53 -19z"/>
<path d="M4268 7558 c-17 -27 -28 -76 -21 -95 9 -22 31 -14 50 17 9 17 23 30
29 30 15 0 67 -53 84 -85 12 -22 11 -27 -5 -45 -22 -24 -103 -62 -116 -54 -5
3 -9 21 -9 40 0 38 -21 54 -45 34 -20 -16 -19 -80 1 -108 22 -33 70 -28 150
13 78 41 84 47 84 96 0 30 -10 45 -70 107 -75 78 -106 90 -132 50z"/>
<path d="M4600 7283 c-16 -21 -20 -36 -16 -63 3 -19 9 -64 15 -100 14 -92 51
-114 110 -64 32 27 37 40 22 62 -6 10 -14 9 -39 -5 -39 -22 -48 -14 -55 55 -5
44 -3 56 14 73 11 11 28 18 37 15 9 -2 34 -7 54 -10 47 -8 60 -39 29 -67 -24
-23 -26 -32 -8 -47 10 -9 22 -5 50 15 31 22 37 32 37 62 -1 43 -25 64 -98 86
-77 24 -127 20 -152 -12z"/>
<path d="M4447 7287 c-15 -5 -56 -24 -90 -42 -77 -41 -93 -72 -56 -111 32 -35
56 -46 79 -39 27 9 25 29 -5 49 -14 9 -25 22 -25 30 0 13 91 66 115 66 35 0
67 -110 41 -145 -12 -17 -17 -18 -39 -6 -60 32 -80 -24 -21 -58 45 -27 64 -26
93 1 22 20 23 26 17 107 -11 126 -43 170 -109 148z"/>
<path d="M4226 3244 c-30 -29 -14 -54 35 -54 14 0 19 -7 19 -28 0 -37 -45
-102 -72 -102 -21 0 -98 69 -98 88 0 6 15 16 34 22 34 11 51 33 40 51 -3 5
-25 9 -49 9 -35 0 -48 -5 -64 -26 -28 -36 -26 -58 7 -92 15 -16 46 -50 70 -76
23 -25 50 -46 60 -46 26 1 57 29 97 90 44 65 51 125 21 159 -23 25 -77 28
-100 5z"/>
<path d="M3972 3090 c-25 -21 -37 -67 -28 -105 9 -35 35 -32 43 5 10 52 36 56
77 10 20 -22 36 -49 36 -59 0 -22 -94 -96 -110 -86 -5 3 -10 22 -10 41 0 26
-4 34 -18 34 -43 0 -56 -58 -25 -111 25 -42 42 -44 90 -9 24 16 50 30 57 30
20 0 76 67 76 92 0 39 -120 179 -153 178 -7 -1 -22 -9 -35 -20z"/>
<path d="M4762 11165 c-59 -18 -72 -32 -72 -75 0 -35 4 -41 46 -65 42 -25 47
-25 63 -11 27 25 51 20 51 -9 0 -18 5 -25 20 -25 30 0 70 29 70 50 0 21 -69
58 -125 67 -57 9 -25 27 52 29 72 1 87 13 51 38 -27 19 -96 20 -156 1z"/>
<path d="M4457 10763 c-15 -14 -6 -33 23 -48 28 -14 31 -14 36 0 11 28 -39 68
-59 48z"/>
<path d="M4310 10606 c0 -14 58 -58 96 -73 8 -3 22 5 32 18 18 22 20 22 58 7
61 -24 145 -32 168 -15 38 28 9 41 -129 58 -181 22 -225 23 -225 5z"/>
<path d="M4864 10454 c-46 -49 -43 -70 6 -44 14 7 25 7 39 -2 11 -7 23 -9 26
-6 10 9 -14 88 -27 88 -6 0 -26 -16 -44 -36z"/>
<path d="M4733 10327 c-35 -23 -65 -50 -68 -59 -9 -27 29 -102 75 -148 42 -42
182 -116 199 -106 15 10 31 279 17 293 -3 3 -17 -2 -30 -11 -30 -19 -77 -21
-94 -4 -7 7 -12 27 -12 45 0 43 -11 41 -87 -10z"/>
<path d="M6874 6035 c-3 -8 12 -51 33 -97 22 -46 45 -95 51 -110 14 -35 41
-36 72 -3 20 21 22 29 12 47 -6 13 -14 34 -17 47 -4 13 -26 48 -49 77 -32 42
-47 54 -69 54 -15 0 -30 -7 -33 -15z"/>
<path d="M6800 5776 c0 -7 7 -19 15 -26 8 -7 15 -18 15 -26 0 -17 15 -25 34
-18 24 9 19 32 -10 59 -30 28 -54 32 -54 11z"/>
<path d="M2533 816 c-44 -23 -112 -96 -119 -128 -3 -18 -10 -39 -14 -48 -8
-15 -25 -105 -40 -210 -4 -31 -11 -66 -14 -78 -7 -21 -5 -22 21 -16 56 12 86
61 128 209 9 33 28 94 42 135 43 126 42 161 -4 136z"/>
<path d="M1868 459 c-21 -11 -24 -49 -5 -49 19 0 109 -50 138 -76 14 -13 31
-24 38 -24 7 0 35 -16 62 -36 42 -31 49 -41 49 -70 0 -49 -32 -67 -113 -62
-46 3 -71 10 -95 28 -23 17 -43 23 -70 22 -32 -2 -43 3 -77 38 -21 22 -45 40
-52 40 -16 0 -36 -76 -28 -107 3 -14 23 -43 45 -66 l39 -42 153 0 153 0 60 40
c32 22 68 55 79 74 l19 33 -28 57 c-15 31 -40 69 -54 85 -77 84 -254 150 -313
115z"/>
<path d="M4642 418 c-95 -12 -153 -38 -188 -84 -36 -47 -36 -95 -1 -151 74
-116 225 -161 383 -112 109 34 174 80 174 125 0 29 -52 41 -83 19 -33 -23 -52
-18 -83 23 -15 20 -29 39 -31 41 -2 2 -6 2 -9 -1 -3 -3 1 -16 8 -27 20 -33 0
-56 -48 -54 -22 1 -46 2 -54 2 -84 -4 -172 1 -189 10 -28 15 -28 62 0 87 16
14 37 19 94 20 44 0 81 6 90 14 18 15 285 20 323 7 21 -8 23 -6 20 14 -5 37
-49 60 -129 70 -91 10 -181 9 -277 -3z"/>
</g>
</svg>
