<svg width="166" height="47" viewBox="0 0 166 47" fill="none" xmlns="http://www.w3.org/2000/svg">
<path d="M149.88 9.07665C138.35 4.72317 126.37 1.52469 114.12 0.0142989C112.499 -0.163394 110.787 1.347 110.427 2.76854C110.067 4.10124 109.977 5.3451 110.337 6.76664C110.607 8.18819 111.508 9.1655 110.607 10.4982C108.896 12.8971 104.482 12.5417 102.23 11.2978C99.708 9.96512 97.9966 7.38857 95.9249 5.61164C93.9432 3.8347 91.6913 2.502 89.1692 1.52469C84.6655 -0.252241 79.3511 -0.696474 75.1176 1.70238C73.3161 2.76854 71.7848 4.36778 71.0642 6.41125C70.7039 7.47741 70.6138 8.54357 70.6138 9.69858C70.7039 11.4755 71.6046 13.6967 68.9925 13.4301C65.9299 13.0748 62.7773 11.4755 59.8048 10.587C56.8324 9.69858 53.8599 8.98781 50.7073 8.72127C45.1226 8.27703 39.8983 9.87627 35.4846 13.3413C31.7015 16.3621 28.8191 20.5379 24.6757 23.0256C19.9017 25.9575 13.7766 24.8914 8.64233 26.846C4.40881 28.4452 -0.725455 32.1768 0.0852184 37.4187C0.985967 43.1049 8.3721 43.638 13.056 43.5491C19.2712 43.5491 24.9459 41.4168 30.8007 39.6399C36.9258 37.6853 42.7807 36.9745 49.0859 38.2183C60.7957 40.5284 72.6855 47.8138 84.9357 46.9253C89.9799 46.5699 95.0241 43.8157 96.5554 38.7514C96.9157 37.5076 96.7355 36.1749 97.9065 35.4641C99.0775 34.7533 100.699 35.1976 101.87 35.6418C104.752 36.7079 107.094 38.9291 109.706 40.4395C115.021 43.4603 121.416 45.1484 127.451 43.0161C133.126 41.0614 135.558 36.708 137.269 31.3772C138.08 28.8006 138.62 26.846 141.773 27.2014C145.106 27.5567 148.348 28.9783 151.681 29.4225C157.086 30.1333 162.85 28.4452 165.553 23.4698C166.003 22.6702 166.093 21.9594 165.913 21.2486C167.174 15.7401 152.492 10.054 149.88 9.07665Z" fill="#FFEDD5"/>
</svg>
