<?xml version="1.0" standalone="no"?>
<!DOCTYPE svg PUBLIC "-//W3C//DTD SVG 20010904//EN"
 "http://www.w3.org/TR/2001/REC-SVG-20010904/DTD/svg10.dtd">
<svg version="1.0" xmlns="http://www.w3.org/2000/svg"
 width="459.000000pt" height="423.000000pt" viewBox="0 0 459.000000 423.000000"
 preserveAspectRatio="xMidYMid meet">

<g transform="translate(0.000000,423.000000) scale(0.100000,-0.100000)"
fill="#ea580c" stroke="none">
<path d="M1955 3811 c-136 -21 -192 -34 -287 -67 -489 -168 -857 -535 -1016
-1015 l-36 -111 24 -20 c14 -11 33 -32 42 -46 l16 -25 11 44 c158 639 675
1088 1327 1150 179 17 348 1 539 -50 136 -37 339 -136 469 -229 101 -73 240
-212 322 -321 68 -93 150 -240 188 -341 l23 -63 17 73 c9 40 16 82 16 94 0 31
-101 209 -174 306 -232 309 -561 519 -941 602 -98 21 -445 33 -540 19z"/>
<path d="M3731 2988 c-43 -90 -78 -279 -107 -571 -6 -67 -6 -67 -70 -126 -108
-98 -234 -146 -292 -110 -45 28 -59 113 -19 125 12 3 46 22 75 42 123 81 149
212 44 212 -83 0 -189 -108 -212 -215 -4 -20 -24 -45 -65 -78 -103 -83 -194
-116 -251 -92 -35 15 -48 33 -57 82 -6 32 -4 34 46 59 122 62 191 161 153 219
-13 19 -25 25 -54 25 -103 -1 -222 -148 -222 -276 0 -20 -33 -101 -88 -216
-81 -167 -130 -248 -152 -248 -32 0 -49 214 -31 406 16 170 64 453 97 573 33
117 35 150 11 165 -15 9 -22 6 -42 -17 -43 -48 -103 -292 -125 -502 -13 -127
-29 -157 -109 -218 -117 -89 -187 -49 -201 117 -7 80 -24 111 -54 100 -7 -3
-46 -60 -87 -127 -71 -117 -74 -121 -77 -88 -4 44 55 167 107 221 44 46 77 51
122 19 57 -40 79 -2 31 52 -34 38 -102 50 -148 26 -54 -28 -115 -106 -161
-206 -133 -283 -227 -469 -250 -493 -36 -37 -48 -24 -64 65 -29 175 31 657
122 973 19 65 -11 105 -51 69 -41 -37 -107 -301 -131 -521 -13 -121 -26 -148
-107 -209 -52 -40 -93 -51 -132 -35 -38 16 -60 66 -69 157 -5 57 -12 79 -26
89 -26 20 -44 1 -117 -123 -70 -121 -83 -133 -75 -73 7 57 58 156 105 208 45
48 83 55 125 22 56 -44 79 -5 29 50 -32 37 -94 50 -142 30 -39 -16 -115 -100
-145 -161 -14 -26 -38 -55 -57 -66 -18 -11 -71 -50 -118 -86 -46 -36 -88 -63
-92 -61 -4 3 -8 39 -8 80 0 94 -19 144 -54 144 -19 0 -36 -17 -81 -81 -107
-152 -197 -225 -181 -147 19 96 137 273 206 308 52 27 65 25 92 -10 25 -35 44
-38 53 -10 7 23 -18 75 -40 84 -76 29 -175 -24 -262 -138 -130 -172 -149 -356
-32 -331 35 8 121 85 175 156 l39 50 8 -48 c4 -26 5 -72 1 -101 -5 -45 -13
-62 -57 -114 -141 -166 -196 -246 -266 -384 -59 -116 -81 -193 -81 -284 0 -79
22 -125 71 -152 44 -24 64 -23 125 6 152 71 260 342 284 715 6 80 12 152 15
161 4 14 94 89 191 162 9 6 12 -8 11 -53 0 -53 3 -65 22 -81 32 -25 68 -23 94
6 11 13 39 56 62 97 23 40 47 75 52 76 6 2 13 -11 17 -29 9 -46 50 -105 87
-124 64 -33 144 -15 227 52 l32 27 0 -96 c0 -244 50 -377 131 -352 39 13 96
105 183 299 l36 79 21 -27 c27 -34 68 -34 100 0 13 14 42 57 64 96 42 74 65
95 65 58 0 -31 35 -95 66 -119 65 -51 135 -45 226 19 l58 41 0 -118 c1 -234
50 -356 131 -322 49 20 90 91 213 363 l26 59 21 -27 c68 -87 203 -73 347 36
30 22 54 38 55 36 1 -1 11 -21 22 -43 62 -122 208 -114 386 22 l65 50 -4 -116
c-4 -129 5 -171 38 -171 17 0 29 17 56 78 64 141 89 185 132 234 24 26 54 51
67 54 69 17 103 -81 74 -215 l-11 -51 -107 -55 c-186 -97 -290 -191 -291 -263
0 -39 52 -82 97 -82 77 0 136 26 207 91 56 52 75 78 118 165 l50 104 108 65
c106 64 250 185 250 210 0 34 -35 20 -122 -50 -79 -64 -191 -135 -212 -135 -3
0 -6 36 -6 80 0 61 -5 90 -20 119 -67 132 -189 101 -304 -79 -38 -61 -41 -63
-44 -37 -8 71 47 499 89 689 12 53 19 103 16 112 -12 31 -44 18 -66 -26z
m-801 -495 c0 -35 -109 -137 -127 -120 -10 10 46 85 81 107 33 21 46 25 46 13z
m440 -5 c0 -31 -110 -131 -127 -115 -8 8 31 60 72 96 37 33 55 39 55 19z
m-2864 -600 c-9 -116 -32 -274 -52 -353 -40 -156 -143 -295 -219 -295 -56 0
-75 27 -75 106 0 132 80 307 234 509 33 44 108 125 115 125 2 0 1 -42 -3 -92z
m3413 70 c-71 -135 -170 -223 -242 -216 -82 8 -10 104 144 190 96 55 116 60
98 26z"/>
<path d="M667 2373 c-4 -3 -7 -16 -6 -27 0 -19 1 -19 10 3 10 24 8 36 -4 24z"/>
<path d="M671 1963 c-1 -49 -6 -116 -11 -151 -7 -54 -5 -72 14 -130 42 -122
145 -308 229 -414 19 -24 29 -23 61 11 l27 28 -56 83 c-113 165 -208 400 -237
578 -7 45 -15 82 -18 82 -3 0 -7 -39 -9 -87z"/>
<path d="M3516 1592 c-57 -117 -178 -295 -235 -346 -29 -26 -27 -36 13 -68
l35 -28 46 53 c63 71 158 214 206 309 42 84 46 98 25 98 -7 0 -24 9 -38 19
l-24 20 -28 -57z"/>
<path d="M3069 1181 c-63 -64 -11 -118 72 -76 31 16 49 13 49 -9 0 -16 -30
-43 -53 -47 -26 -5 -26 -23 -1 -27 32 -5 84 44 84 79 0 43 -31 55 -87 34 -32
-13 -48 -14 -56 -6 -12 12 17 51 40 51 7 0 13 7 13 15 0 24 -29 17 -61 -14z"/>
<path d="M939 1161 c-38 -38 -39 -80 -1 -120 33 -36 72 -50 72 -27 0 9 -6 16
-13 16 -21 0 -57 44 -57 68 0 31 35 62 68 62 29 0 54 -20 65 -52 9 -25 27 -22
27 3 0 11 -13 34 -29 50 -41 40 -91 40 -132 0z"/>
<path d="M2787 970 c-26 -15 -50 -30 -53 -33 -7 -7 74 -157 85 -157 13 0 100
50 107 61 13 22 -7 20 -50 -4 l-46 -26 -11 22 c-12 21 -4 32 47 63 36 22 2 28
-37 7 -38 -21 -40 -21 -49 -3 -14 26 -14 26 30 51 22 13 40 26 40 30 0 18 -18
15 -63 -11z"/>
<path d="M1262 906 c-23 -40 -42 -76 -42 -79 0 -7 83 -57 93 -57 16 0 5 29
-12 35 -43 13 -44 31 -7 98 32 57 36 77 16 77 -3 0 -25 -33 -48 -74z"/>
<path d="M2484 798 l7 -44 -46 -11 c-50 -11 -50 -12 -60 35 -7 32 -18 41 -30
23 -8 -15 38 -182 50 -178 5 2 9 22 7 44 -3 37 -1 41 25 47 15 4 35 9 45 12
12 3 19 -5 28 -31 14 -43 44 -50 34 -7 -24 95 -42 146 -54 150 -10 4 -11 -6
-6 -40z"/>
<path d="M1601 804 c-63 -53 -30 -149 56 -161 37 -5 45 -2 73 25 48 49 39 116
-20 147 -42 22 -74 19 -109 -11z m109 -24 c58 -58 -31 -149 -92 -93 -22 20
-23 70 -1 95 21 24 68 23 93 -2z"/>
<path d="M1980 760 c0 -5 14 -10 30 -10 l30 0 0 -80 c0 -63 3 -80 15 -80 11 0
15 18 17 78 3 76 3 77 31 80 57 7 24 22 -48 22 -43 0 -75 -4 -75 -10z"/>
</g>
</svg>
